<svg xmlns="http://www.w3.org/2000/svg" xmlns:xlink="http://www.w3.org/1999/xlink" version="1.1" width="115" height="115" viewBox="0 0 115 115" xml:space="preserve">
<desc>Created with Fabric.js 3.5.0</desc>
<defs>
</defs>
<rect x="0" y="0" width="100%" height="100%" fill="rgba(255,255,255,0)"/>
<g transform="matrix(2 0 0 2 57.5 57.5)" id="722751">
<g style="" vector-effect="non-scaling-stroke">
		<g transform="matrix(1 0 0 1 -11.3798 2.1109)" id="Layer_1">
<polygon style="stroke: none; stroke-width: 1; stroke-dasharray: none; stroke-linecap: butt; stroke-dashoffset: 0; stroke-linejoin: miter; stroke-miterlimit: 4; is-custom-font: none; font-file-url: none; fill: rgb(56,46,119); fill-rule: nonzero; opacity: 1;" points="0.5484,-15.5031 0.4776,14.9068 -0.5484,15.5031 -0.4776,-14.9068 "/>
</g>
		<g transform="matrix(1 0 0 1 -13.0299 1.4563)" id="Layer_1">
<path style="stroke: none; stroke-width: 1; stroke-dasharray: none; stroke-linecap: butt; stroke-dashoffset: 0; stroke-linejoin: miter; stroke-miterlimit: 4; is-custom-font: none; font-file-url: none; fill: rgb(72,56,133); fill-rule: nonzero; opacity: 1;" transform=" translate(-11.9701, -26.4563)" d="M 10.79757 40.70855 l 0.07072 -30.40989 c -0.00083 0.2958 0.95182 1.04328 2.27427 1.90539 l -0.07073 30.4099 C 11.74938 41.75185 10.79673 41.00436 10.79757 40.70855 z" stroke-linecap="round"/>
</g>
		<g transform="matrix(1 0 0 1 -7.2253 3.9152)" id="Layer_1">
<polygon style="stroke: none; stroke-width: 1; stroke-dasharray: none; stroke-linecap: butt; stroke-dashoffset: 0; stroke-linejoin: miter; stroke-miterlimit: 4; is-custom-font: none; font-file-url: none; fill: rgb(38,27,79); fill-rule: nonzero; opacity: 1;" points="3.6769,-13.1025 3.6062,17.3074 -3.6769,13.1025 -3.6062,-17.3074 "/>
</g>
		<g transform="matrix(1 0 0 1 -7.1939 -8.9489)" id="Layer_1">
<polygon style="stroke: none; stroke-width: 1; stroke-dasharray: none; stroke-linecap: butt; stroke-dashoffset: 0; stroke-linejoin: miter; stroke-miterlimit: 4; is-custom-font: none; font-file-url: none; fill: rgb(132,57,209); fill-rule: nonzero; opacity: 1;" points="3.6455,1.6357 3.6375,2.5692 -3.6455,-1.6357 -3.6375,-2.5692 "/>
</g>
		<g transform="matrix(1 0 0 1 -7.1939 -6.5321)" id="Layer_1">
<polygon style="stroke: none; stroke-width: 1; stroke-dasharray: none; stroke-linecap: butt; stroke-dashoffset: 0; stroke-linejoin: miter; stroke-miterlimit: 4; is-custom-font: none; font-file-url: none; fill: rgb(132,57,209); fill-rule: nonzero; opacity: 1;" points="3.6455,1.6357 3.6375,2.5692 -3.6455,-1.6357 -3.6375,-2.5692 "/>
</g>
		<g transform="matrix(1 0 0 1 -7.1939 -4.1154)" id="Layer_1">
<polygon style="stroke: none; stroke-width: 1; stroke-dasharray: none; stroke-linecap: butt; stroke-dashoffset: 0; stroke-linejoin: miter; stroke-miterlimit: 4; is-custom-font: none; font-file-url: none; fill: rgb(132,57,209); fill-rule: nonzero; opacity: 1;" points="3.6455,1.6357 3.6375,2.5692 -3.6455,-1.6357 -3.6375,-2.5692 "/>
</g>
		<g transform="matrix(1 0 0 1 -7.1939 -1.6986)" id="Layer_1">
<polygon style="stroke: none; stroke-width: 1; stroke-dasharray: none; stroke-linecap: butt; stroke-dashoffset: 0; stroke-linejoin: miter; stroke-miterlimit: 4; is-custom-font: none; font-file-url: none; fill: rgb(132,57,209); fill-rule: nonzero; opacity: 1;" points="3.6455,1.6357 3.6375,2.5692 -3.6455,-1.6357 -3.6375,-2.5692 "/>
</g>
		<g transform="matrix(1 0 0 1 -7.1939 0.7182)" id="Layer_1">
<polygon style="stroke: none; stroke-width: 1; stroke-dasharray: none; stroke-linecap: butt; stroke-dashoffset: 0; stroke-linejoin: miter; stroke-miterlimit: 4; is-custom-font: none; font-file-url: none; fill: rgb(132,57,209); fill-rule: nonzero; opacity: 1;" points="3.6455,1.6357 3.6375,2.5692 -3.6455,-1.6357 -3.6375,-2.5692 "/>
</g>
		<g transform="matrix(1 0 0 1 -7.5115 2.835)" id="Layer_1">
<polygon style="stroke: none; stroke-width: 1; stroke-dasharray: none; stroke-linecap: butt; stroke-dashoffset: 0; stroke-linejoin: miter; stroke-miterlimit: 4; is-custom-font: none; font-file-url: none; fill: rgb(56,46,119); fill-rule: nonzero; opacity: 1;" points="2.0969,0.9159 2.0919,1.5026 -2.0969,-0.9159 -2.0919,-1.5026 "/>
</g>
		<g transform="matrix(1 0 0 1 -7.5115 4.2158)" id="Layer_1">
<polygon style="stroke: none; stroke-width: 1; stroke-dasharray: none; stroke-linecap: butt; stroke-dashoffset: 0; stroke-linejoin: miter; stroke-miterlimit: 4; is-custom-font: none; font-file-url: none; fill: rgb(56,46,119); fill-rule: nonzero; opacity: 1;" points="2.0969,0.9159 2.0919,1.5026 -2.0969,-0.9159 -2.0919,-1.5026 "/>
</g>
		<g transform="matrix(1 0 0 1 -7.5115 6.9774)" id="Layer_1">
<polygon style="stroke: none; stroke-width: 1; stroke-dasharray: none; stroke-linecap: butt; stroke-dashoffset: 0; stroke-linejoin: miter; stroke-miterlimit: 4; is-custom-font: none; font-file-url: none; fill: rgb(56,46,119); fill-rule: nonzero; opacity: 1;" points="2.0969,0.9159 2.0919,1.5026 -2.0969,-0.9159 -2.0919,-1.5026 "/>
</g>
		<g transform="matrix(1 0 0 1 -7.5115 5.5966)" id="Layer_1">
<polygon style="stroke: none; stroke-width: 1; stroke-dasharray: none; stroke-linecap: butt; stroke-dashoffset: 0; stroke-linejoin: miter; stroke-miterlimit: 4; is-custom-font: none; font-file-url: none; fill: rgb(56,46,119); fill-rule: nonzero; opacity: 1;" points="2.0969,0.9159 2.0919,1.5026 -2.0969,-0.9159 -2.0919,-1.5026 "/>
</g>
		<g transform="matrix(1 0 0 1 -7.5115 9.7391)" id="Layer_1">
<polygon style="stroke: none; stroke-width: 1; stroke-dasharray: none; stroke-linecap: butt; stroke-dashoffset: 0; stroke-linejoin: miter; stroke-miterlimit: 4; is-custom-font: none; font-file-url: none; fill: rgb(56,46,119); fill-rule: nonzero; opacity: 1;" points="2.0969,0.9159 2.0919,1.5026 -2.0969,-0.9159 -2.0919,-1.5026 "/>
</g>
		<g transform="matrix(1 0 0 1 -7.5115 8.3582)" id="Layer_1">
<polygon style="stroke: none; stroke-width: 1; stroke-dasharray: none; stroke-linecap: butt; stroke-dashoffset: 0; stroke-linejoin: miter; stroke-miterlimit: 4; is-custom-font: none; font-file-url: none; fill: rgb(56,46,119); fill-rule: nonzero; opacity: 1;" points="2.0969,0.9159 2.0919,1.5026 -2.0969,-0.9159 -2.0919,-1.5026 "/>
</g>
		<g transform="matrix(1 0 0 1 -7.5115 11.1199)" id="Layer_1">
<polygon style="stroke: none; stroke-width: 1; stroke-dasharray: none; stroke-linecap: butt; stroke-dashoffset: 0; stroke-linejoin: miter; stroke-miterlimit: 4; is-custom-font: none; font-file-url: none; fill: rgb(56,46,119); fill-rule: nonzero; opacity: 1;" points="2.0969,0.9159 2.0919,1.5026 -2.0969,-0.9159 -2.0919,-1.5026 "/>
</g>
		<g transform="matrix(1 0 0 1 6.7884 3.578)" id="Layer_1">
<polygon style="stroke: none; stroke-width: 1; stroke-dasharray: none; stroke-linecap: butt; stroke-dashoffset: 0; stroke-linejoin: miter; stroke-miterlimit: 4; is-custom-font: none; font-file-url: none; fill: rgb(56,46,119); fill-rule: nonzero; opacity: 1;" points="7.9696,-20.1138 7.8989,10.892 -7.9696,20.1138 -7.8989,-11.5717 "/>
</g>
		<g transform="matrix(1 0 0 1 -2.8743 7.2648)" id="Layer_1">
<path style="stroke: none; stroke-width: 1; stroke-dasharray: none; stroke-linecap: butt; stroke-dashoffset: 0; stroke-linejoin: miter; stroke-miterlimit: 4; is-custom-font: none; font-file-url: none; fill: rgb(72,56,133); fill-rule: nonzero; opacity: 1;" transform=" translate(-22.1257, -32.2648)" d="M 23.88952 17.68601 l -0.07072 30.4099 c -0.3087 0.1794 -1.95371 -0.50577 -3.45702 -1.28111 l 0.07072 -30.40989 C 22.12755 17.27913 23.57062 17.87133 23.88952 17.68601 z" stroke-linecap="round"/>
</g>
		<g transform="matrix(1 0 0 1 0.3132 -15.65)" id="Layer_1">
<path style="stroke: none; stroke-width: 1; stroke-dasharray: none; stroke-linecap: butt; stroke-dashoffset: 0; stroke-linejoin: miter; stroke-miterlimit: 4; is-custom-font: none; font-file-url: none; fill: rgb(72,56,133); fill-rule: nonzero; opacity: 1;" transform=" translate(-25.3132, -9.35)" d="M 39.75808 8.46421 l -15.86856 9.2218 c -0.3189 0.18532 -1.76197 -0.40688 -3.45702 -1.2811 l 1.01908 -0.59223 l -7.28304 -4.20487 l -1.02599 0.59624 c -1.50786 -0.98298 -2.53497 -1.81694 -2.21607 -2.00226 l 15.86856 -9.2218 L 39.75808 8.46421 z" stroke-linecap="round"/>
</g>
		<g transform="matrix(1 0 0 1 -11.3484 -10.7533)" id="Layer_1">
<polygon style="stroke: none; stroke-width: 1; stroke-dasharray: none; stroke-linecap: butt; stroke-dashoffset: 0; stroke-linejoin: miter; stroke-miterlimit: 4; is-custom-font: none; font-file-url: none; fill: rgb(79,68,251); fill-rule: nonzero; opacity: 1;" points="0.517,-0.7648 0.509,0.1686 -0.517,0.7648 -0.509,-0.1686 "/>
</g>
		<g transform="matrix(1 0 0 1 -11.3484 -8.3365)" id="Layer_1">
<polygon style="stroke: none; stroke-width: 1; stroke-dasharray: none; stroke-linecap: butt; stroke-dashoffset: 0; stroke-linejoin: miter; stroke-miterlimit: 4; is-custom-font: none; font-file-url: none; fill: rgb(79,68,251); fill-rule: nonzero; opacity: 1;" points="0.517,-0.7648 0.509,0.1686 -0.517,0.7648 -0.509,-0.1686 "/>
</g>
		<g transform="matrix(1 0 0 1 -11.3484 -5.9198)" id="Layer_1">
<polygon style="stroke: none; stroke-width: 1; stroke-dasharray: none; stroke-linecap: butt; stroke-dashoffset: 0; stroke-linejoin: miter; stroke-miterlimit: 4; is-custom-font: none; font-file-url: none; fill: rgb(79,68,251); fill-rule: nonzero; opacity: 1;" points="0.517,-0.7648 0.509,0.1686 -0.517,0.7648 -0.509,-0.1686 "/>
</g>
		<g transform="matrix(1 0 0 1 -11.3484 -3.503)" id="Layer_1">
<polygon style="stroke: none; stroke-width: 1; stroke-dasharray: none; stroke-linecap: butt; stroke-dashoffset: 0; stroke-linejoin: miter; stroke-miterlimit: 4; is-custom-font: none; font-file-url: none; fill: rgb(79,68,251); fill-rule: nonzero; opacity: 1;" points="0.517,-0.7648 0.509,0.1686 -0.517,0.7648 -0.509,-0.1686 "/>
</g>
		<g transform="matrix(1 0 0 1 -11.3484 -1.0862)" id="Layer_1">
<polygon style="stroke: none; stroke-width: 1; stroke-dasharray: none; stroke-linecap: butt; stroke-dashoffset: 0; stroke-linejoin: miter; stroke-miterlimit: 4; is-custom-font: none; font-file-url: none; fill: rgb(79,68,251); fill-rule: nonzero; opacity: 1;" points="0.517,-0.7648 0.509,0.1686 -0.517,0.7648 -0.509,-0.1686 "/>
</g>
		<g transform="matrix(1 0 0 1 -12.9986 -11.4079)" id="Layer_1">
<path style="stroke: none; stroke-width: 1; stroke-dasharray: none; stroke-linecap: butt; stroke-dashoffset: 0; stroke-linejoin: miter; stroke-miterlimit: 4; is-custom-font: none; font-file-url: none; fill: rgb(230,107,251); fill-rule: nonzero; opacity: 1;" transform=" translate(-12.0014, -13.5921)" d="M 10.86032 13.10616 l 0.00796 -0.93343 c -0.00083 0.2958 0.95182 1.04328 2.27427 1.90539 l -0.00797 0.93344 C 11.81214 14.14945 10.85949 13.40197 10.86032 13.10616 z" stroke-linecap="round"/>
</g>
		<g transform="matrix(1 0 0 1 -12.9986 -8.9911)" id="Layer_1">
<path style="stroke: none; stroke-width: 1; stroke-dasharray: none; stroke-linecap: butt; stroke-dashoffset: 0; stroke-linejoin: miter; stroke-miterlimit: 4; is-custom-font: none; font-file-url: none; fill: rgb(230,107,251); fill-rule: nonzero; opacity: 1;" transform=" translate(-12.0014, -16.0089)" d="M 10.86032 15.52294 l 0.00796 -0.93343 c -0.00083 0.2958 0.95182 1.04328 2.27427 1.90539 l -0.00797 0.93344 C 11.81214 16.56623 10.85949 15.81875 10.86032 15.52294 z" stroke-linecap="round"/>
</g>
		<g transform="matrix(1 0 0 1 -12.9986 -6.5743)" id="Layer_1">
<path style="stroke: none; stroke-width: 1; stroke-dasharray: none; stroke-linecap: butt; stroke-dashoffset: 0; stroke-linejoin: miter; stroke-miterlimit: 4; is-custom-font: none; font-file-url: none; fill: rgb(230,107,251); fill-rule: nonzero; opacity: 1;" transform=" translate(-12.0014, -18.4257)" d="M 10.86032 17.93972 l 0.00796 -0.93343 c -0.00083 0.2958 0.95182 1.04328 2.27427 1.90539 l -0.00797 0.93344 C 11.81214 18.98301 10.85949 18.23553 10.86032 17.93972 z" stroke-linecap="round"/>
</g>
		<g transform="matrix(1 0 0 1 -12.9986 -4.1575)" id="Layer_1">
<path style="stroke: none; stroke-width: 1; stroke-dasharray: none; stroke-linecap: butt; stroke-dashoffset: 0; stroke-linejoin: miter; stroke-miterlimit: 4; is-custom-font: none; font-file-url: none; fill: rgb(230,107,251); fill-rule: nonzero; opacity: 1;" transform=" translate(-12.0014, -20.8425)" d="M 10.86032 20.3565 l 0.00796 -0.93343 c -0.00083 0.2958 0.95182 1.04328 2.27427 1.90539 l -0.00797 0.93344 C 11.81214 21.3998 10.85949 20.65232 10.86032 20.3565 z" stroke-linecap="round"/>
</g>
		<g transform="matrix(1 0 0 1 -12.9986 -1.7408)" id="Layer_1">
<path style="stroke: none; stroke-width: 1; stroke-dasharray: none; stroke-linecap: butt; stroke-dashoffset: 0; stroke-linejoin: miter; stroke-miterlimit: 4; is-custom-font: none; font-file-url: none; fill: rgb(230,107,251); fill-rule: nonzero; opacity: 1;" transform=" translate(-12.0014, -23.2593)" d="M 10.86032 22.77328 l 0.00796 -0.93343 c -0.00083 0.2958 0.95182 1.04328 2.27427 1.90539 l -0.00797 0.93344 C 11.81214 23.81658 10.85949 23.0691 10.86032 22.77328 z" stroke-linecap="round"/>
</g>
		<g transform="matrix(1 0 0 1 -2.843 -5.6159)" id="Layer_1">
<path style="stroke: none; stroke-width: 1; stroke-dasharray: none; stroke-linecap: butt; stroke-dashoffset: 0; stroke-linejoin: miter; stroke-miterlimit: 4; is-custom-font: none; font-file-url: none; fill: rgb(230,107,251); fill-rule: nonzero; opacity: 1;" transform=" translate(-22.157, -19.384)" d="M 23.88952 19.56007 l -0.00786 0.89898 c -0.3087 0.1794 -1.95381 -0.47131 -3.45712 -1.24664 l 0.00796 -0.93343 C 21.9358 19.0543 23.58082 19.73947 23.88952 19.56007 z" stroke-linecap="round"/>
</g>
		<g transform="matrix(1 0 0 1 -2.843 -3.1991)" id="Layer_1">
<path style="stroke: none; stroke-width: 1; stroke-dasharray: none; stroke-linecap: butt; stroke-dashoffset: 0; stroke-linejoin: miter; stroke-miterlimit: 4; is-custom-font: none; font-file-url: none; fill: rgb(230,107,251); fill-rule: nonzero; opacity: 1;" transform=" translate(-22.157, -21.8008)" d="M 23.88952 21.97685 l -0.00786 0.89898 c -0.3087 0.1794 -1.95381 -0.47131 -3.45712 -1.24664 l 0.00796 -0.93343 C 21.9358 21.47108 23.58082 22.15625 23.88952 21.97685 z" stroke-linecap="round"/>
</g>
		<g transform="matrix(1 0 0 1 -2.843 -0.7823)" id="Layer_1">
<path style="stroke: none; stroke-width: 1; stroke-dasharray: none; stroke-linecap: butt; stroke-dashoffset: 0; stroke-linejoin: miter; stroke-miterlimit: 4; is-custom-font: none; font-file-url: none; fill: rgb(230,107,251); fill-rule: nonzero; opacity: 1;" transform=" translate(-22.157, -24.2176)" d="M 23.88952 24.39364 l -0.00786 0.89898 c -0.3087 0.1794 -1.95381 -0.47131 -3.45712 -1.24664 l 0.00796 -0.93343 C 21.9358 23.88787 23.58082 24.57303 23.88952 24.39364 z" stroke-linecap="round"/>
</g>
		<g transform="matrix(1 0 0 1 -2.843 1.6344)" id="Layer_1">
<path style="stroke: none; stroke-width: 1; stroke-dasharray: none; stroke-linecap: butt; stroke-dashoffset: 0; stroke-linejoin: miter; stroke-miterlimit: 4; is-custom-font: none; font-file-url: none; fill: rgb(230,107,251); fill-rule: nonzero; opacity: 1;" transform=" translate(-22.157, -26.6344)" d="M 23.88952 26.81042 l -0.00786 0.89898 c -0.3087 0.1794 -1.95381 -0.47131 -3.45712 -1.24664 l 0.00796 -0.93343 C 21.9358 26.30465 23.58082 26.98981 23.88952 26.81042 z" stroke-linecap="round"/>
</g>
		<g transform="matrix(1 0 0 1 -2.843 4.0512)" id="Layer_1">
<path style="stroke: none; stroke-width: 1; stroke-dasharray: none; stroke-linecap: butt; stroke-dashoffset: 0; stroke-linejoin: miter; stroke-miterlimit: 4; is-custom-font: none; font-file-url: none; fill: rgb(230,107,251); fill-rule: nonzero; opacity: 1;" transform=" translate(-22.157, -29.0512)" d="M 23.88952 29.2272 l -0.00786 0.89898 c -0.3087 0.1794 -1.95381 -0.47131 -3.45712 -1.24664 l 0.00796 -0.93343 C 21.9358 28.72143 23.58082 29.4066 23.88952 29.2272 z" stroke-linecap="round"/>
</g>
		<g transform="matrix(1 0 0 1 13.3982 11.4067)" id="Layer_1">
<polygon style="stroke: none; stroke-width: 1; stroke-dasharray: none; stroke-linecap: butt; stroke-dashoffset: 0; stroke-linejoin: miter; stroke-miterlimit: 4; is-custom-font: none; font-file-url: none; fill: rgb(38,27,79); fill-rule: nonzero; opacity: 1;" points="0.2135,1.3846 -0.2011,1.6223 -0.2135,-1.3846 0.2011,-1.6223 "/>
</g>
		<g transform="matrix(1 0 0 1 12.6137 11.8573)" id="Layer_1">
<polygon style="stroke: none; stroke-width: 1; stroke-dasharray: none; stroke-linecap: butt; stroke-dashoffset: 0; stroke-linejoin: miter; stroke-miterlimit: 4; is-custom-font: none; font-file-url: none; fill: rgb(38,27,79); fill-rule: nonzero; opacity: 1;" points="0.2153,1.3836 -0.2028,1.6233 -0.2153,-1.3836 0.2028,-1.6233 "/>
</g>
		<g transform="matrix(1 0 0 1 11.8291 12.308)" id="Layer_1">
<polygon style="stroke: none; stroke-width: 1; stroke-dasharray: none; stroke-linecap: butt; stroke-dashoffset: 0; stroke-linejoin: miter; stroke-miterlimit: 4; is-custom-font: none; font-file-url: none; fill: rgb(38,27,79); fill-rule: nonzero; opacity: 1;" points="0.2135,1.3846 -0.2011,1.6223 -0.2135,-1.3846 0.2011,-1.6223 "/>
</g>
		<g transform="matrix(1 0 0 1 11.0464 12.7576)" id="Layer_1">
<polygon style="stroke: none; stroke-width: 1; stroke-dasharray: none; stroke-linecap: butt; stroke-dashoffset: 0; stroke-linejoin: miter; stroke-miterlimit: 4; is-custom-font: none; font-file-url: none; fill: rgb(38,27,79); fill-rule: nonzero; opacity: 1;" points="0.2135,1.3846 -0.2011,1.6223 -0.2135,-1.3846 0.2011,-1.6223 "/>
</g>
		<g transform="matrix(1 0 0 1 10.2619 13.2083)" id="Layer_1">
<polygon style="stroke: none; stroke-width: 1; stroke-dasharray: none; stroke-linecap: butt; stroke-dashoffset: 0; stroke-linejoin: miter; stroke-miterlimit: 4; is-custom-font: none; font-file-url: none; fill: rgb(38,27,79); fill-rule: nonzero; opacity: 1;" points="0.2153,1.3836 -0.2029,1.6233 -0.2153,-1.3836 0.2028,-1.6233 "/>
</g>
		<g transform="matrix(1 0 0 1 6.0641 15.6115)" id="Layer_1">
<polygon style="stroke: none; stroke-width: 1; stroke-dasharray: none; stroke-linecap: butt; stroke-dashoffset: 0; stroke-linejoin: miter; stroke-miterlimit: 4; is-custom-font: none; font-file-url: none; fill: rgb(38,27,79); fill-rule: nonzero; opacity: 1;" points="0.2135,1.3846 -0.2011,1.6223 -0.2135,-1.3846 0.2011,-1.6223 "/>
</g>
		<g transform="matrix(1 0 0 1 5.2796 16.0622)" id="Layer_1">
<polygon style="stroke: none; stroke-width: 1; stroke-dasharray: none; stroke-linecap: butt; stroke-dashoffset: 0; stroke-linejoin: miter; stroke-miterlimit: 4; is-custom-font: none; font-file-url: none; fill: rgb(38,27,79); fill-rule: nonzero; opacity: 1;" points="0.2153,1.3836 -0.2028,1.6233 -0.2153,-1.3836 0.2028,-1.6233 "/>
</g>
		<g transform="matrix(1 0 0 1 4.495 16.5128)" id="Layer_1">
<polygon style="stroke: none; stroke-width: 1; stroke-dasharray: none; stroke-linecap: butt; stroke-dashoffset: 0; stroke-linejoin: miter; stroke-miterlimit: 4; is-custom-font: none; font-file-url: none; fill: rgb(38,27,79); fill-rule: nonzero; opacity: 1;" points="0.2135,1.3846 -0.2011,1.6223 -0.2135,-1.3846 0.2011,-1.6223 "/>
</g>
		<g transform="matrix(1 0 0 1 3.7122 16.9625)" id="Layer_1">
<polygon style="stroke: none; stroke-width: 1; stroke-dasharray: none; stroke-linecap: butt; stroke-dashoffset: 0; stroke-linejoin: miter; stroke-miterlimit: 4; is-custom-font: none; font-file-url: none; fill: rgb(38,27,79); fill-rule: nonzero; opacity: 1;" points="0.2135,1.3846 -0.2011,1.6223 -0.2135,-1.3846 0.2011,-1.6223 "/>
</g>
		<g transform="matrix(1 0 0 1 2.9277 17.4131)" id="Layer_1">
<polygon style="stroke: none; stroke-width: 1; stroke-dasharray: none; stroke-linecap: butt; stroke-dashoffset: 0; stroke-linejoin: miter; stroke-miterlimit: 4; is-custom-font: none; font-file-url: none; fill: rgb(38,27,79); fill-rule: nonzero; opacity: 1;" points="0.2153,1.3836 -0.2029,1.6233 -0.2153,-1.3836 0.2028,-1.6233 "/>
</g>
		<g transform="matrix(1 0 0 1 13.3982 5.8509)" id="Layer_1">
<polygon style="stroke: none; stroke-width: 1; stroke-dasharray: none; stroke-linecap: butt; stroke-dashoffset: 0; stroke-linejoin: miter; stroke-miterlimit: 4; is-custom-font: none; font-file-url: none; fill: rgb(38,27,79); fill-rule: nonzero; opacity: 1;" points="0.2135,1.3846 -0.2011,1.6223 -0.2135,-1.3846 0.2011,-1.6223 "/>
</g>
		<g transform="matrix(1 0 0 1 12.6137 6.3015)" id="Layer_1">
<polygon style="stroke: none; stroke-width: 1; stroke-dasharray: none; stroke-linecap: butt; stroke-dashoffset: 0; stroke-linejoin: miter; stroke-miterlimit: 4; is-custom-font: none; font-file-url: none; fill: rgb(38,27,79); fill-rule: nonzero; opacity: 1;" points="0.2153,1.3836 -0.2028,1.6233 -0.2153,-1.3836 0.2028,-1.6233 "/>
</g>
		<g transform="matrix(1 0 0 1 11.8291 6.7522)" id="Layer_1">
<polygon style="stroke: none; stroke-width: 1; stroke-dasharray: none; stroke-linecap: butt; stroke-dashoffset: 0; stroke-linejoin: miter; stroke-miterlimit: 4; is-custom-font: none; font-file-url: none; fill: rgb(38,27,79); fill-rule: nonzero; opacity: 1;" points="0.2135,1.3846 -0.2011,1.6223 -0.2135,-1.3846 0.2011,-1.6223 "/>
</g>
		<g transform="matrix(1 0 0 1 11.0464 7.2018)" id="Layer_1">
<polygon style="stroke: none; stroke-width: 1; stroke-dasharray: none; stroke-linecap: butt; stroke-dashoffset: 0; stroke-linejoin: miter; stroke-miterlimit: 4; is-custom-font: none; font-file-url: none; fill: rgb(38,27,79); fill-rule: nonzero; opacity: 1;" points="0.2135,1.3846 -0.2011,1.6223 -0.2135,-1.3846 0.2011,-1.6223 "/>
</g>
		<g transform="matrix(1 0 0 1 10.2619 7.6525)" id="Layer_1">
<polygon style="stroke: none; stroke-width: 1; stroke-dasharray: none; stroke-linecap: butt; stroke-dashoffset: 0; stroke-linejoin: miter; stroke-miterlimit: 4; is-custom-font: none; font-file-url: none; fill: rgb(38,27,79); fill-rule: nonzero; opacity: 1;" points="0.2153,1.3836 -0.2029,1.6233 -0.2153,-1.3836 0.2028,-1.6233 "/>
</g>
		<g transform="matrix(1 0 0 1 6.0641 10.0557)" id="Layer_1">
<polygon style="stroke: none; stroke-width: 1; stroke-dasharray: none; stroke-linecap: butt; stroke-dashoffset: 0; stroke-linejoin: miter; stroke-miterlimit: 4; is-custom-font: none; font-file-url: none; fill: rgb(38,27,79); fill-rule: nonzero; opacity: 1;" points="0.2135,1.3846 -0.2011,1.6223 -0.2135,-1.3846 0.2011,-1.6223 "/>
</g>
		<g transform="matrix(1 0 0 1 5.2796 10.5063)" id="Layer_1">
<polygon style="stroke: none; stroke-width: 1; stroke-dasharray: none; stroke-linecap: butt; stroke-dashoffset: 0; stroke-linejoin: miter; stroke-miterlimit: 4; is-custom-font: none; font-file-url: none; fill: rgb(38,27,79); fill-rule: nonzero; opacity: 1;" points="0.2153,1.3836 -0.2028,1.6233 -0.2153,-1.3836 0.2028,-1.6233 "/>
</g>
		<g transform="matrix(1 0 0 1 4.495 10.957)" id="Layer_1">
<polygon style="stroke: none; stroke-width: 1; stroke-dasharray: none; stroke-linecap: butt; stroke-dashoffset: 0; stroke-linejoin: miter; stroke-miterlimit: 4; is-custom-font: none; font-file-url: none; fill: rgb(38,27,79); fill-rule: nonzero; opacity: 1;" points="0.2135,1.3846 -0.2011,1.6223 -0.2135,-1.3846 0.2011,-1.6223 "/>
</g>
		<g transform="matrix(1 0 0 1 3.7122 11.4067)" id="Layer_1">
<polygon style="stroke: none; stroke-width: 1; stroke-dasharray: none; stroke-linecap: butt; stroke-dashoffset: 0; stroke-linejoin: miter; stroke-miterlimit: 4; is-custom-font: none; font-file-url: none; fill: rgb(38,27,79); fill-rule: nonzero; opacity: 1;" points="0.2135,1.3846 -0.2011,1.6223 -0.2135,-1.3846 0.2011,-1.6223 "/>
</g>
		<g transform="matrix(1 0 0 1 2.9277 11.8573)" id="Layer_1">
<polygon style="stroke: none; stroke-width: 1; stroke-dasharray: none; stroke-linecap: butt; stroke-dashoffset: 0; stroke-linejoin: miter; stroke-miterlimit: 4; is-custom-font: none; font-file-url: none; fill: rgb(38,27,79); fill-rule: nonzero; opacity: 1;" points="0.2153,1.3836 -0.2029,1.6233 -0.2153,-1.3836 0.2028,-1.6233 "/>
</g>
		<g transform="matrix(1 0 0 1 -1.1843 8.1715)" id="Layer_1">
<polygon style="stroke: none; stroke-width: 1; stroke-dasharray: none; stroke-linecap: butt; stroke-dashoffset: 0; stroke-linejoin: miter; stroke-miterlimit: 4; is-custom-font: none; font-file-url: none; fill: rgb(38,27,79); fill-rule: nonzero; opacity: 1;" points="-0.6143,-15.0855 0.6299,-15.8086 0.6143,15.0855 -0.6299,15.8086 "/>
</g>
		<g transform="matrix(1 0 0 1 -7.658 -11.0178)" id="Layer_1">
<polygon style="stroke: none; stroke-width: 1; stroke-dasharray: none; stroke-linecap: butt; stroke-dashoffset: 0; stroke-linejoin: miter; stroke-miterlimit: 4; is-custom-font: none; font-file-url: none; fill: rgb(38,27,79); fill-rule: nonzero; opacity: 1;" points="-7.1036,-3.3806 -5.8594,-4.1036 7.1036,3.3806 5.8594,4.1036 "/>
</g>
		<g transform="matrix(1 0 0 1 -8.2871 4.7919)" id="Layer_1">
<path style="stroke: none; stroke-width: 1; stroke-dasharray: none; stroke-linecap: butt; stroke-dashoffset: 0; stroke-linejoin: miter; stroke-miterlimit: 4; is-custom-font: none; font-file-url: none; fill: rgb(56,46,119); fill-rule: nonzero; opacity: 1;" transform=" translate(-16.7129, -29.7918)" d="M 10.2422 10.60526 l -0.0176 30.89247 l 12.95897 7.48069 l 0.01765 -30.89247 L 10.2422 10.60526 z M 21.7661 46.36595 l -10.03452 -5.79293 l 0.00877 -28.23874 l 10.0434 5.79292 L 21.7661 46.36595 z" stroke-linecap="round"/>
</g>
		<g transform="matrix(1 0 0 1 -8.245 4.3499)" id="Layer_1">
<polygon style="stroke: none; stroke-width: 1; stroke-dasharray: none; stroke-linecap: butt; stroke-dashoffset: 0; stroke-linejoin: miter; stroke-miterlimit: 4; is-custom-font: none; font-file-url: none; fill: rgb(79,68,251); fill-rule: nonzero; opacity: 0.3;" points="-5.0105,-17.0176 -5.0244,11.224 5.0098,17.0176 5.0244,-11.2247 "/>
</g>
		<g transform="matrix(1 0 0 1 -8.2492 12.455)" id="Layer_1">
<polygon style="stroke: none; stroke-width: 1; stroke-dasharray: none; stroke-linecap: butt; stroke-dashoffset: 0; stroke-linejoin: miter; stroke-miterlimit: 4; is-custom-font: none; font-file-url: none; fill: rgb(79,68,251); fill-rule: nonzero; opacity: 0.3;" points="-5.0202,3.1189 -4.822,3.2334 5.0189,-0.6983 5.0202,-3.2334 -5.0191,0.7777 "/>
</g>
		<g transform="matrix(1 0 0 1 -2.7711 7.6907)" id="Layer_1">
<path style="stroke: none; stroke-width: 1; stroke-dasharray: none; stroke-linecap: butt; stroke-dashoffset: 0; stroke-linejoin: miter; stroke-miterlimit: 4; is-custom-font: none; font-file-url: none; fill: rgb(183,184,253); fill-rule: nonzero; opacity: 1;" transform=" translate(-22.2289, -32.6907)" d="M 22.96342 33.93107 l -0.56429 0.32437 c -0.04021 0.02412 -0.07506 0.02546 -0.10186 0.01072 l -0.32839 -0.19033 l 0.00134 0.26405 c 0.00133 0.13403 0.04825 0.2292 0.12599 0.27478 l -0.47315 -0.27478 c -0.0764 -0.04557 -0.12465 -0.13939 -0.12465 -0.27477 l -0.00402 -2.23408 c -0.00133 -0.27209 0.19033 -0.60316 0.42623 -0.73853 l 0.56429 -0.3257 l 0.47181 0.27343 l -0.56295 0.3257 c -0.23725 0.13672 -0.42757 0.46779 -0.42757 0.73988 l 0.00268 1.85208 l 0.52139 -0.30158 L 22.96342 33.93107 z" stroke-linecap="round"/>
</g>
		<g transform="matrix(1 0 0 1 -2.5347 7.8419)" id="Layer_1">
<path style="stroke: none; stroke-width: 1; stroke-dasharray: none; stroke-linecap: butt; stroke-dashoffset: 0; stroke-linejoin: miter; stroke-miterlimit: 4; is-custom-font: none; font-file-url: none; fill: rgb(121,122,254); fill-rule: nonzero; opacity: 1;" transform=" translate(-22.4653, -32.8419)" d="M 22.9571 31.04087 l 0.00093 0.32745 l -0.56395 0.3256 c -0.07873 0.04546 -0.14184 0.15577 -0.14159 0.24623 l 0.00406 2.23469 c 0.00026 0.09047 0.06379 0.12667 0.14252 0.08122 l 0.56395 -0.3256 l 0.00093 0.32844 l -0.56396 0.3256 c -0.23619 0.13637 -0.42851 0.02578 -0.42927 -0.24463 l -0.00406 -2.23469 c -0.00077 -0.2714 0.1903 -0.60235 0.42649 -0.73871 L 22.9571 31.04087 z" stroke-linecap="round"/>
</g>
		<g transform="matrix(1 0 0 1 -7.581 14.9046)" id="Layer_1">
<polygon style="stroke: none; stroke-width: 1; stroke-dasharray: none; stroke-linecap: butt; stroke-dashoffset: 0; stroke-linejoin: miter; stroke-miterlimit: 4; is-custom-font: none; font-file-url: none; fill: rgb(79,68,251); fill-rule: nonzero; opacity: 0.3;" points="-3.3245,2.0342 4.3497,-1.032 4.3502,-2.0342 -4.3502,1.442 "/>
</g>
		<g transform="matrix(1 0 0 1 -8.2454 4.9162)" id="Layer_1">
<polygon style="stroke: none; stroke-width: 1; stroke-dasharray: none; stroke-linecap: butt; stroke-dashoffset: 0; stroke-linejoin: miter; stroke-miterlimit: 4; is-custom-font: none; font-file-url: none; fill: rgb(79,68,251); fill-rule: nonzero; opacity: 0.3;" points="5.02,-2.5067 -5.0195,1.5045 -5.02,2.5067 5.0194,-1.5045 "/>
</g>
		<g transform="matrix(1 0 0 1 -8.244 2.0337)" id="Layer_1">
<polygon style="stroke: none; stroke-width: 1; stroke-dasharray: none; stroke-linecap: butt; stroke-dashoffset: 0; stroke-linejoin: miter; stroke-miterlimit: 4; is-custom-font: none; font-file-url: none; fill: rgb(79,68,251); fill-rule: nonzero; opacity: 0.3;" points="5.0204,-3.2731 -5.0192,0.7381 -5.0204,3.2731 5.0191,-0.738 "/>
</g>
		<g transform="matrix(1 0 0 1 -8.3297 -5.304)" id="Layer_1">
<polygon style="stroke: none; stroke-width: 1; stroke-dasharray: none; stroke-linecap: butt; stroke-dashoffset: 0; stroke-linejoin: miter; stroke-miterlimit: 4; is-custom-font: none; font-file-url: none; fill: rgb(79,68,251); fill-rule: nonzero; opacity: 0.3;" points="3.9048,-2.266 -4.9301,1.2638 -4.9306,2.266 4.9306,-1.6739 "/>
</g>
		<g transform="matrix(1 0 0 1 -9.4121 -7.44)" id="Layer_1">
<polygon style="stroke: none; stroke-width: 1; stroke-dasharray: none; stroke-linecap: butt; stroke-dashoffset: 0; stroke-linejoin: miter; stroke-miterlimit: 4; is-custom-font: none; font-file-url: none; fill: rgb(79,68,251); fill-rule: nonzero; opacity: 0.3;" points="1.2524,-2.286 -3.8459,-0.2491 -3.8471,2.286 3.8471,-0.7882 "/>
</g>
</g>
</g>
</svg>