<svg xmlns="http://www.w3.org/2000/svg" xmlns:xlink="http://www.w3.org/1999/xlink" version="1.1" width="115" height="115" viewBox="0 0 115 115" xml:space="preserve">
<desc>Created with Fabric.js 3.5.0</desc>
<defs>
</defs>
<rect x="0" y="0" width="100%" height="100%" fill="rgba(255,255,255,0)"/>
<g transform="matrix(5 0 0 5 57.5 57.5)" id="828138">
<path style="stroke: none; stroke-width: 0; stroke-dasharray: none; stroke-linecap: butt; stroke-dashoffset: 0; stroke-linejoin: miter; stroke-miterlimit: 4; is-custom-font: none; font-file-url: none; fill: rgb(128,99,255); fill-rule: nonzero; opacity: 1;" vector-effect="non-scaling-stroke" transform=" translate(-12, -12)" d="M 12 2 A 10 10 0 0 0 5.12 4.77 V 3 a 1 1 0 0 0 -2 0 V 7.5 a 1 1 0 0 0 1 1 H 8.62 a 1 1 0 0 0 0 -2 H 6.22 A 8 8 0 1 1 4 12 a 1 1 0 0 0 -2 0 A 10 10 0 1 0 12 2 Z m 0 6 a 1 1 0 0 0 -1 1 v 3 a 1 1 0 0 0 1 1 h 2 a 1 1 0 0 0 0 -2 H 13 V 9 A 1 1 0 0 0 12 8 Z" stroke-linecap="round"/>
</g>
</svg>