<svg version="1.2" preserveAspectRatio="none" xmlns="http://www.w3.org/2000/svg" viewBox="0 0 960 195" width="960" height="195"><style>.a{fill:#fff}.b{fill:#f5f3ff}.c{fill:#ddd6fe}.d{fill:#c4b5fd}.e{fill:#a78bfa}</style><path class="a" d="m0-345h960v540h-960z"/><path class="b" d="m0 38l20-6.5c20-6.5 60-19.5 100-20 40-0.5 80 11.5 120 12.2 40 0.6 80-10 120-10.9 40-0.8 80 8.2 120 8 40-0.1 80-9.5 120-6 40 3.5 80 19.9 120 28.4 40 8.5 80 9.1 120 2.1 40-7 80-21.6 100-29l20-7.3v187h-20c-20 0-60 0-100 0q-60 0-120 0-60 0-120 0-60 0-120 0-60 0-120 0-60 0-120 0-60 0-120 0c-40 0-80 0-100 0h-20z"/><path class="c" d="m0 78l20-8.3c20-8.4 60-25 100-32.2 40-7.2 80-4.8 120 2.8 40 7.7 80 20.7 120 22.9 40 2.1 80-6.5 120-12.4 40-5.8 80-8.8 120-7.5 40 1.4 80 7 120 12 40 5 80 9.4 120 10 40 0.7 80-2.3 100-3.8l20-1.5v136h-20c-20 0-60 0-100 0q-60 0-120 0-60 0-120 0-60 0-120 0-60 0-120 0-60 0-120 0-60 0-120 0c-40 0-80 0-100 0h-20z"/><path class="d" d="m0 65l20 2.3c20 2.4 60 7 100 12.4 40 5.3 80 11.3 120 10 40-1.4 80-10 120-16.5 40-6.5 80-10.9 120-11 40-0.2 80 3.8 120 5.5 40 1.6 80 1 120 1.6 40 0.7 80 2.7 120 6.4 40 3.6 80 9 100 11.6l20 2.7v106h-20c-20 0-60 0-100 0q-60 0-120 0-60 0-120 0-60 0-120 0-60 0-120 0-60 0-120 0-60 0-120 0c-40 0-80 0-100 0h-20z"/><path class="e" d="m0 101l20-0.7c20-0.6 60-2 100-4.1 40-2.2 80-5.2 120-4 40 1.1 80 6.5 120 8.6 40 2.2 80 1.2 120-2 40-3.1 80-8.5 120-5.3 40 3.2 80 14.8 120 17 40 2.2 80-5.2 120-11 40-5.8 80-10.2 100-12.3l20-2.2v111h-20c-20 0-60 0-100 0q-60 0-120 0-60 0-120 0-60 0-120 0-60 0-120 0-60 0-120 0-60 0-120 0c-40 0-80 0-100 0h-20z"/><path class="d" d="m0 141l20-1c20-1 60-3 100-9.3 40-6.4 80-17 120-21.2 40-4.2 80-1.8 120 1.8 40 3.7 80 8.7 120 7.2 40-1.5 80-9.5 120-9.8 40-0.4 80 7 120 9.3 40 2.3 80-0.3 120-0.7 40-0.3 80 1.7 100 2.7l20 1v75h-20c-20 0-60 0-100 0q-60 0-120 0-60 0-120 0-60 0-120 0-60 0-120 0-60 0-120 0-60 0-120 0c-40 0-80 0-100 0h-20z"/><path class="c" d="m0 153l20 0.7c20 0.6 60 2 100-1 40-3 80-10.4 120-11.7 40-1.3 80 3.3 120 5.8 40 2.5 80 2.9 120 4.7 40 1.8 80 5.2 120 3.8 40-1.3 80-7.3 120-11 40-3.6 80-5 120-4.6 40 0.3 80 2.3 100 3.3l20 1v52h-20c-20 0-60 0-100 0q-60 0-120 0-60 0-120 0-60 0-120 0-60 0-120 0-60 0-120 0-60 0-120 0c-40 0-80 0-100 0h-20z"/><path class="b" d="m0 157l20-1c20-1 60-3 100-0.5 40 2.5 80 9.5 120 9.7 40 0.1 80-6.5 120-9.5 40-3 80-2.4 120 2.6 40 5 80 14.4 120 15.5 40 1.2 80-5.8 120-10.3 40-4.5 80-6.5 120-7.8 40-1.4 80-2 100-2.4l20-0.3v43h-20c-20 0-60 0-100 0q-60 0-120 0-60 0-120 0-60 0-120 0-60 0-120 0-60 0-120 0-60 0-120 0c-40 0-80 0-100 0h-20z"/></svg>
