<svg version="1.2" xmlns="http://www.w3.org/2000/svg" viewBox="0 0 358 255" width="358" height="255"><style>.a{opacity:0;fill:#fff}.b{fill:#f5f3ff}.c{fill:#eaeaea}.d{fill:#b2b6bb}.e{fill:#868a91}.f{opacity:.2}.g{fill:#fc9d9d}.h{opacity:.1}.i{fill:#7c3aed}.j{fill:#fff}.k{fill:#3f4249}.l{opacity:.4}.m{fill:#61656d}.n{fill:#21252b}.o{opacity:.2;fill:#fff}.p{opacity:.6}.q{opacity:.9;fill:#fff}.r{opacity:.1;fill:#fff}.s{opacity:.3}.t{opacity:.4;fill:#fff}.u{opacity:.5;fill:#fff}.v{fill:#9a73ef}.w{opacity:0}</style><path class="a" d="m-71-73h500v400h-500z"/><path class="b" d="m3.9 114.5l84.7-107.7c3.8-4.8 9.9-7.3 16-6.3l210.8 30.9c6.7 1 12.2 5.9 14.1 12.5l27.6 100.2c0.6 2.1 0.8 4.5 0.5 6.7l-13.3 104.3h-314.8l-28.8-126.1c-1.2-5.1 0-10.4 3.2-14.5z"/><path class="c" d="m330.9 49.1l24.7 89.3-104.1 1.5v-90.8z"/><path class="d" d="m217 167.5h-107c-2 0-3.6-1.6-3.6-3.5v-62.3h110.6c2 0 3.6 1.5 3.6 3.5v58.8c0 1.9-1.6 3.5-3.6 3.5z"/><path class="e" d="m89.7 105.6c0-2.2 1.8-4 4-4h15.4c2.2 0 4 1.8 4 4v57.9c0 2.2-1.8 4-4 4h-15.4c-2.2 0-4-1.8-4-4z"/><path class="e" d="m218.4 155.3c0-2 1.6-3.6 3.6-3.6h45.5c2 0 3.6 1.6 3.6 3.6v99.6h-52.7z"/><path class="d" d="m259.3 155.3c0-2 1.6-3.6 3.6-3.6h16.3c1.9 0 3.5 1.6 3.5 3.6v99.6h-23.4z"/><path class="d" d="m141.1 186.1h118.4v23.4h-118.4z"/><path class="f" d="m143.4 186.1h3.3v23.4h-3.3z"/><path class="g" d="m273.2 239.6l1.1 1.7c1.5 2.3 3.7 4.1 6.3 4.9l14.2 5.1c1.3 0.4 1.2 2.2-0.2 2.2h-1.8c-0.2 0.4-0.6 0.5-1 0.5-0.3 0-0.8-0.1-1.1-0.4q0 0-0.1-0.1h-0.2c0 0.1-0.1 0.1-0.1 0.1-0.2 0.3-0.6 0.5-1 0.5-0.3 0-0.7-0.2-1-0.4-0.1-0.1-0.3-0.1-0.4 0q-0.3 0.4-0.8 0.4c-0.3 0-0.6-0.1-0.9-0.3-0.1-0.1-0.3-0.1-0.4 0-0.2 0.2-0.4 0.3-0.7 0.3-0.3 0-0.6-0.2-0.8-0.5h-0.1l-17.6-0.3c-1.7 0-3-0.6-3.7-1.9l-3.6-6.5z"/><path class="h" d="m259.3 244.9l13.8-5.4-8.1 5.5c-0.5 0.3-0.7 1-0.4 1.5l1.9 3.5c0.7 1.2 1.7 1.8 3.2 1.9q0.5 0 0.9-0.1c1.9-0.4 3.9-0.6 5.9-0.5 3.1-2.1 5-4.8 5-4.8l2.6 0.7 3 5.7h-3l2 0.7q-0.1 0-0.3 0.1c-0.2 0.2-0.4 0.3-0.7 0.3-0.4 0-0.7-0.2-0.8-0.5h-0.2l-17.5-0.3c-1.7 0-3-0.5-3.7-1.8z"/><path class="i" d="m137.7 162.7c-2.7 0-5.1-2-5.6-4.8l-2.9-15.5c-0.1-0.4-0.2-0.7-0.3-1.1l-3.1-6.7-1.8-11.9c-0.8-5.6 2.7-11 8.3-12.3l15.5-3.7 16.9-0.2 16.7 4c4.3 1 7.6 4.6 8.3 9.1l6.2 43.1z"/><path class="j" d="m186.2 119.3c-0.2 0-0.4-0.2-0.4-0.4l-0.2-1.5c-0.1-0.3 0.1-0.5 0.4-0.5 0.2-0.1 0.5 0.1 0.5 0.4l0.2 1.5c0 0.2-0.1 0.5-0.4 0.5q0 0-0.1 0z"/><path class="j" d="m168.1 136.4c-0.2 0-0.4-0.2-0.4-0.4l-0.2-1.5c0-0.3 0.2-0.5 0.5-0.5 0.2-0.1 0.5 0.1 0.5 0.4l0.1 1.5c0 0.3-0.1 0.5-0.4 0.5z"/><path class="j" d="m142.9 118.9c-0.2 0-0.4-0.2-0.4-0.5l-0.2-1.5c0-0.3 0.2-0.5 0.4-0.5 0.3 0 0.5 0.1 0.5 0.4l0.2 1.6c0 0.2-0.2 0.5-0.4 0.5 0-0.1-0.1 0-0.1 0z"/><path class="j" d="m129.2 115.7c-0.2-0.1-0.3-0.4-0.2-0.6l0.7-1.3c0.2-0.3 0.5-0.4 0.7-0.2 0.2 0.1 0.3 0.4 0.2 0.6l-0.8 1.3c-0.1 0.3-0.4 0.4-0.6 0.2q-0.1 0.1 0 0z"/><path class="j" d="m153.5 139.9c-0.1 0-0.2-0.1-0.3-0.1-0.1-0.2-0.2-0.5 0-0.7l0.9-1.2c0.2-0.2 0.5-0.2 0.7 0 0.2 0.1 0.2 0.4 0.1 0.6l-1 1.2q-0.2 0.2-0.4 0.2z"/><path class="j" d="m175.3 112.6c-0.1 0-0.2 0-0.3-0.1-0.2-0.2-0.3-0.5-0.1-0.7l0.9-1c0.2-0.2 0.5-0.3 0.7-0.1 0.1 0.1 0.2 0.5 0 0.6l-0.9 1.1q-0.1 0.2-0.3 0.2z"/><path class="j" d="m153.7 125.9c-0.1 0-0.3-0.1-0.4-0.3l-0.7-1.2c-0.2-0.2-0.1-0.5 0.1-0.6 0.2-0.2 0.5-0.1 0.7 0.1l0.7 1.2c0.1 0.3 0.1 0.5-0.1 0.7q-0.2 0.1-0.3 0.1z"/><path class="j" d="m136.7 128.3q0 0-0.1 0l-1.4-0.3c-0.2-0.1-0.4-0.4-0.3-0.6 0.1-0.3 0.3-0.4 0.6-0.4l1.3 0.4c0.3 0.1 0.4 0.3 0.4 0.6-0.1 0.2-0.3 0.3-0.5 0.3z"/><path class="j" d="m178.2 144.7c-0.1 0-0.2 0-0.3-0.1-0.2-0.1-0.2-0.4-0.1-0.6l0.9-1.1c0.2-0.2 0.5-0.2 0.7-0.1 0.2 0.2 0.2 0.5 0.1 0.7l-0.9 1.1c-0.1 0.1-0.3 0.1-0.4 0.1z"/><path class="j" d="m175.3 126.5c-0.1 0-0.1 0-0.2 0l-1.5-0.5c-0.2 0-0.4-0.3-0.3-0.5 0.1-0.3 0.3-0.4 0.6-0.4l1.5 0.5c0.3 0.1 0.4 0.4 0.3 0.6 0 0.2-0.2 0.3-0.4 0.3z"/><path class="j" d="m187.1 137.7q-0.1-0.1-0.1-0.1l-0.9-1.4c-0.2-0.2-0.1-0.5 0.1-0.6 0.2-0.2 0.5-0.1 0.7 0.1l0.9 1.4c0.1 0.2 0.1 0.5-0.2 0.6-0.1 0.1-0.4 0.1-0.5 0z"/><path class="e" d="m259.1 213c-0.1 0-0.2-0.1-0.2-0.2v-42c0-0.1 0.1-0.2 0.2-0.2 0.1 0 0.2 0.1 0.2 0.2v42c0 0.1-0.1 0.2-0.2 0.2z"/><path class="j" d="m165.2 118.1c0 0-0.1 0-0.1-0.1l-1.5-0.4c-0.3-0.1-0.4-0.4-0.3-0.6 0-0.3 0.3-0.4 0.6-0.3l1.5 0.4c0.2 0.1 0.4 0.4 0.3 0.6-0.1 0.2-0.3 0.4-0.5 0.4z"/><path class="j" d="m163.9 149.2c0 0-0.1 0-0.1 0l-1.5-0.5c-0.3-0.1-0.4-0.4-0.3-0.6 0-0.3 0.3-0.4 0.6-0.3l1.5 0.5c0.2 0 0.4 0.3 0.3 0.5-0.1 0.3-0.3 0.4-0.5 0.4z"/><path class="f" d="m143.9 148.1l-2.5-24.3c0-0.3 0.4-0.4 0.5-0.1l7.7 25.2z"/><path class="f" d="m178.6 157.9v-0.1 0.1z"/><path class="e" d="m189.8 159.3c-0.3 0.4-0.9 0.5-1.3 0.2l-5.5-4.1 7 3.2c0.1 0.3 0 0.5-0.2 0.7z"/><path class="k" d="m273.1 239.6l-13.8 5.3-33.2-58.8h-58.1v-23.4h66.7c4.1 0 7.9 2.5 9.4 6.3z"/><path class="f" d="m266 242.3l-6.7 2.6-33.2-58.8h-58.1v-23.4h55.2c4.1 0 7.9 2.5 9.4 6.3z"/><path class="k" d="m238.2 239.6l-13.9 5.3-33.2-58.8h-58v-23.4h66.7c4.1 0 7.8 2.5 9.4 6.3z"/><path class="f" d="m230.6 242.5l-6.3 2.4-33.2-58.8h-44.4-3.3v-23.4h8.1l-1.3 12.5h39.8c5.1 0 7.7 1.3 10.1 5.9z"/><path class="g" d="m238.2 239.6l1.1 1.7c1.5 2.3 3.8 4.1 6.3 4.9l14.3 5.1c1.2 0.4 1.1 2.2-0.3 2.2h-1.7c-0.3 0.4-0.6 0.5-1 0.5-0.4 0-0.8-0.1-1.1-0.4q-0.1 0-0.1-0.1h-0.3c0 0.1-0.1 0.1-0.1 0.1-0.2 0.3-0.6 0.5-0.9 0.5-0.4 0-0.8-0.2-1.1-0.4-0.1-0.1-0.3-0.1-0.4 0q-0.3 0.4-0.8 0.4c-0.2 0-0.6-0.1-0.8-0.3-0.2-0.1-0.3-0.1-0.4 0-0.2 0.2-0.4 0.3-0.7 0.3-0.4 0-0.7-0.2-0.9-0.5h-0.1l-17.6-0.3c-1.7 0-2.9-0.6-3.6-1.9l-3.7-6.5z"/><path class="h" d="m228.9 243.2l9.3-3.6-7.6 6.7 1.5 2.7c0.7 1.3 2 1.9 3.7 1.9l17.6 0.3h0.1c0.1 0.3 0.5 0.5 0.8 0.5q0.4 0 0.7-0.3c0.1-0.1 0.3-0.1 0.4 0 0.3 0.1 0.6 0.3 0.9 0.3q0.5 0 0.8-0.4c0.1-0.1 0.3-0.1 0.4 0 0.3 0.2 0.7 0.4 1 0.4 0.4 0 0.7-0.2 1-0.5q0 0 0.1-0.1l0.3 0.1q0.1 0.1 0.2 0.1 0.1 0.1 0.1 0.1c0.9 0.6 0.7 2.1-0.5 2.1h-1.8c-0.2 0.4-0.6 0.5-1 0.5-0.4 0-0.8-0.1-1.1-0.4q0 0-0.1-0.1h-0.2c-0.1 0.1-0.1 0.1-0.2 0.1-0.2 0.3-0.5 0.5-0.9 0.5-0.3 0-0.8-0.2-1-0.4-0.2-0.1-0.4-0.1-0.5 0q-0.3 0.4-0.7 0.4c-0.3 0-0.6-0.1-0.9-0.3-0.1-0.1-0.3-0.1-0.4 0-0.2 0.2-0.4 0.3-0.7 0.3-0.4 0-0.7-0.2-0.8-0.5h-0.2l-17.6-0.3c-1.6 0-2.9-0.6-3.6-1.9l-3.6-6.5z"/><path class="h" d="m243.8 253.1h-5.2c5.2-1.7 7.9-6.6 7.9-6.6z"/><path class="e" d="m78.1 155.3c0-2 1.6-3.6 3.6-3.6h45.5c1.9 0 3.5 1.6 3.5 3.6v96c0 2-1.6 3.6-3.5 3.6h-49.1z"/><path class="l" d="m52 101.7h-2.8v151.2h-1v-137.6-15.1h3.8z"/><path class="m" d="m39.9 97.6v-8h20.4v8c0 1.4-1.2 2.6-2.6 2.6h-15.3c-1.4 0-2.5-1.2-2.5-2.6z"/><path class="m" d="m48.1 100.2h3.9v152.7h-3.9z"/><path class="n" d="m52 101.6h-2.8v147.7h-1v-149.1h3.8z"/><path class="n" d="m45 100.2h-2.6c-1.4 0-2.5-1.2-2.5-2.6v-2h2.5v2c0 1.4 1.2 2.6 2.6 2.6z"/><path class="m" d="m29.5 254.7c-0.7 0-1-1-0.3-1.3 6-2.9 13.2-4.6 20.9-4.6 7.6 0 14.8 1.7 20.8 4.6 0.7 0.3 0.5 1.3-0.3 1.3z"/><path class="n" d="m36.5 254.7h-7c-0.7 0-0.9-1-0.3-1.3 6.1-2.9 13.2-4.6 20.9-4.6q1.2 0 2.3 0c-7.2 0.5-14.1 3.4-15.9 5.9z"/><path class="d" d="m353.5 255.1h-338.2q-0.1-0.1-0.1-0.2 0-0.2 0.1-0.2h338.2q0.2 0 0.2 0.2 0 0.1-0.2 0.2z"/><path class="n" d="m66.3 149.1q-0.2 0-0.2-0.2v-53.1q0-0.2 0.2-0.2 0.1 0 0.1 0.2v53.1c0 0.1-0.1 0.2-0.1 0.2z"/><path class="d" d="m126.3 152.1h-35.1c-0.1 0-0.2-0.1-0.2-0.2 0-0.1 0.1-0.2 0.2-0.2h35.1c0.1 0 0.2 0.1 0.2 0.2 0 0.1-0.1 0.2-0.2 0.2z"/><path class="o" d="m287.3 51.1l34.6 86.9h-10.7l-34-86.9z"/><path class="o" d="m295.1 51.1l34.6 86.9h-3.6l-34-86.9z"/><path fill-rule="evenodd" class="j" d="m356.5 141.9h-107v-94.8h80.9l1.1 4h-25.5v86.9h49.4zm-103-4h48.6v-86.9h-48.6z"/><path class="n" d="m114.2 151.8h-8.1c-1.2 0-2.2-1-2.2-2.3v-13.3h12.6v13.3c-0.1 1.3-1.1 2.3-2.3 2.3z"/><path class="n" d="m118.4 147.2h-2v-1h2c0.5 0 0.9-0.4 0.9-0.9v-5.4c0-0.5-0.4-0.9-0.9-0.9h-2v-0.9h2c1 0 1.8 0.8 1.8 1.8v5.4c0.1 1.1-0.8 1.9-1.8 1.9z"/><path class="p" d="m117.3 139.1h-0.9v7.2h0.9v1h-0.9v2.2c0 1.3-1 2.3-2.2 2.3h-8.1c-0.5 0-1-0.2-1.4-0.5h7c1.1 0 2-0.9 2-2v-13.1h2.7v1.9h0.9v0.9z"/><path class="j" d="m108.2 135.3q-0.2 0-0.2-0.2c0-1.2-1-2.2-2.2-2.2h-1.1c-0.9 0-1.6-0.7-1.6-1.7 0-0.9 0.7-1.7 1.6-1.7h6c0.8 0 1.4-0.6 1.4-1.3 0-0.8-0.6-1.4-1.4-1.4h-1.4c-1 0-1.7-0.8-1.7-1.7q0-0.2 0.1-0.2 0.2 0 0.2 0.2c0 0.8 0.6 1.4 1.4 1.4h1.4c1 0 1.7 0.7 1.7 1.7 0 0.9-0.7 1.7-1.7 1.7h-6c-0.7 0-1.3 0.6-1.3 1.3 0 0.8 0.6 1.4 1.3 1.4h1.1c1.4 0 2.5 1.1 2.5 2.5q0 0.2-0.1 0.2z"/><path class="j" d="m111.6 136.2q-0.1 0-0.1-0.1v-0.4c0-0.3-0.3-0.5-0.5-0.5-0.5 0-0.8-0.4-0.8-0.8v-0.7c0-0.4 0.3-0.8 0.8-0.8h1c1.3 0 2.4-1.1 2.4-2.4v-1.3q0-0.1 0.2-0.1 0.1 0 0.1 0.1v1.2c0 1.6-1.2 2.8-2.7 2.8h-1c-0.3 0-0.5 0.2-0.5 0.5v0.7c0 0.2 0.2 0.5 0.5 0.5 0.4 0 0.8 0.3 0.8 0.8v0.4c0 0-0.1 0.1-0.2 0.1z"/><path class="p" d="m161.5 140.9c0-0.4 0.2-0.7 0.6-0.7 0.3 0 0.6 0.3 0.6 0.7 0 0.3-0.3 0.6-0.6 0.6-0.4 0-0.6-0.3-0.6-0.6z"/><path class="p" d="m187.5 129.6c0-0.3 0.3-0.6 0.6-0.6 0.4 0 0.7 0.3 0.7 0.6 0 0.4-0.3 0.7-0.7 0.7-0.3 0-0.6-0.3-0.6-0.7z"/><path class="p" d="m175.5 117.7c0-0.4 0.2-0.7 0.6-0.7 0.3 0 0.6 0.3 0.6 0.7 0 0.3-0.3 0.6-0.6 0.6-0.4 0-0.6-0.3-0.6-0.6z"/><path class="p" d="m162.3 126.2c0-0.3 0.3-0.6 0.6-0.6 0.3 0 0.6 0.3 0.6 0.6 0 0.4-0.3 0.7-0.6 0.7-0.3 0-0.6-0.3-0.6-0.7z"/><path class="p" d="m178.1 148.9c0-0.3 0.2-0.6 0.6-0.6 0.3 0 0.6 0.3 0.6 0.6 0 0.4-0.3 0.7-0.6 0.7-0.4 0-0.6-0.3-0.6-0.7z"/><path class="p" d="m175.7 135c0-0.3 0.3-0.6 0.7-0.6 0.3 0 0.6 0.3 0.6 0.6 0 0.4-0.3 0.6-0.6 0.6-0.4 0-0.7-0.2-0.7-0.6z"/><path class="p" d="m151.2 114.1c0-0.4 0.3-0.7 0.7-0.7 0.3 0 0.6 0.3 0.6 0.7 0 0.3-0.3 0.6-0.6 0.6-0.4 0-0.7-0.3-0.7-0.6z"/><path class="p" d="m136.4 112.2c0-0.3 0.2-0.6 0.6-0.6 0.3 0 0.6 0.3 0.6 0.6 0 0.4-0.3 0.6-0.6 0.6-0.4 0-0.6-0.2-0.6-0.6z"/><path class="p" d="m147.8 130c0-0.4 0.3-0.6 0.6-0.6 0.4 0 0.7 0.2 0.7 0.6 0 0.3-0.3 0.6-0.7 0.6-0.3 0-0.6-0.3-0.6-0.6z"/><path class="p" d="m148.4 146.7c0-0.4 0.3-0.7 0.7-0.7 0.3 0 0.6 0.3 0.6 0.7 0 0.3-0.3 0.6-0.6 0.6-0.4 0-0.7-0.3-0.7-0.6z"/><path class="p" d="m127.8 123.4c0-0.4 0.3-0.6 0.7-0.6 0.3 0 0.6 0.2 0.6 0.6 0 0.3-0.3 0.6-0.6 0.6-0.4 0-0.7-0.3-0.7-0.6z"/><path class="i" d="m295.5 254.9h-32.3c-0.5 0-0.9-0.4-0.9-0.9 0-0.5 0.4-0.9 0.9-0.9h33.1v0.9c0 0.5-0.4 0.9-0.8 0.9z"/><path class="i" d="m296.3 254c0 0.5-0.4 0.9-0.8 0.9h-32.3c-0.5 0-0.9-0.4-0.9-0.9 0-0.5 0.4-0.9 0.9-0.9h14.4c2.3-2.3 3.5-5.6 4-7.2 0.1-0.5 0.5-0.7 1-0.5l10.7 3.7c1.8 0.6 2.9 2.2 3 4z"/><path class="n" d="m296.3 254c0 0.5-0.4 0.9-0.8 0.9h-32.3c-0.5 0-0.9-0.4-0.9-0.9 0-0.5 0.4-0.9 0.9-0.9h14.4c2.3-2.3 3.5-5.6 4-7.2 0.1-0.5 0.5-0.7 1-0.5l10.7 3.7c1.8 0.6 2.9 2.2 3 4z"/><path class="l" d="m296.3 253.1v0.9c0 0.5-0.4 0.9-0.9 0.9h-32.2c-0.5 0-0.9-0.4-0.9-0.9 0-0.5 0.4-0.9 0.9-0.9h14.4c0.7-0.6 1.2-1.4 1.7-2.2q0 0.1 0 0.1c1.3 0.1 2.8 0.1 14.1 0.7 2.2 0.1 2.4-1 0.9-2.1 1.2 0.8 1.9 2.1 2 3.5z"/><path class="l" d="m296.3 253.1h-18.7l0.3-0.2h18.4z"/><path class="i" d="m260.6 254.9h-32.2c-0.5 0-0.9-0.4-0.9-0.9 0-0.5 0.4-0.9 0.9-0.9h33.1v0.9c0 0.5-0.4 0.9-0.9 0.9z"/><path class="i" d="m261.5 254c0 0.5-0.4 0.9-0.9 0.9h-32.2c-0.5 0-0.9-0.4-0.9-0.9 0-0.5 0.4-0.9 0.9-0.9h14.4c2.3-2.3 3.4-5.6 3.9-7.2 0.1-0.5 0.6-0.7 1.1-0.5l10.7 3.7c1.7 0.6 2.9 2.2 3 4z"/><path class="n" d="m261.5 254c0 0.5-0.4 0.9-0.9 0.9h-32.2c-0.5 0-0.9-0.4-0.9-0.9 0-0.5 0.4-0.9 0.9-0.9h14.4c2.3-2.3 3.4-5.6 3.9-7.2 0.1-0.5 0.6-0.7 1.1-0.5l10.7 3.7c1.7 0.6 2.9 2.2 3 4z"/><path class="l" d="m261.5 254c0 0.5-0.4 0.9-0.9 0.9h-32.2c-0.5 0-0.9-0.4-0.9-0.9 0-0.5 0.4-0.9 0.9-0.9h14.4c0.6-0.6 1.2-1.4 1.7-2.2q0 0.1 0 0.1c1.3 0.1 2.7 0.1 14 0.7 2.2 0.1 2.5-1 1-2.1 1.1 0.8 1.9 2.1 2 3.5z"/><path class="l" d="m261.5 253.1h-18.7l0.3-0.2h18.4z"/><path class="d" d="m135.6 49.1v0.1h-1.5c-7.9 0-14.2-6.4-14.2-14.2 0-7.8 6.3-14.2 14.2-14.2h1.5v0.1c7.1 0.8 12.6 6.8 12.6 14.1 0 7.3-5.5 13.3-12.6 14.1z"/><path class="e" d="m135.6 49.2c-7.8 0-14.1-6.4-14.1-14.2 0-7.8 6.3-14.2 14.1-14.2 7.8 0 14.2 6.4 14.2 14.2 0 7.8-6.4 14.2-14.2 14.2z"/><path class="j" d="m135.6 47.6c-6.9 0-12.6-5.6-12.6-12.6 0-7 5.7-12.6 12.6-12.6 7 0 12.6 5.6 12.6 12.6 0 7-5.6 12.6-12.6 12.6z"/><path class="e" d="m135.6 47.6c-6.9 0-12.6-5.6-12.6-12.6 0-7 5.7-12.6 12.6-12.6 7 0 12.6 5.6 12.6 12.6 0 7-5.6 12.6-12.6 12.6z"/><path class="q" d="m135.6 47.6c-6.9 0-12.6-5.6-12.6-12.6 0-7 5.7-12.6 12.6-12.6 7 0 12.6 5.6 12.6 12.6 0 7-5.6 12.6-12.6 12.6z"/><path class="d" d="m148.2 35c0 7-5.6 12.6-12.6 12.6-0.2 0-0.4 0-0.7 0 6.7-0.4 11.9-5.9 11.9-12.6 0-6.7-5.2-12.2-11.9-12.6q0.4 0 0.7 0c7 0 12.6 5.6 12.6 12.6z"/><path class="i" d="m135.7 36l-4.1-8.3c-0.2-0.4-0.1-0.8 0.2-0.9 0.4-0.2 0.8 0 0.9 0.3l3.6 7.1 4.8-2.3c0.3-0.2 0.7-0.1 0.9 0.3 0.1 0.3 0 0.7-0.3 0.9z"/><path class="n" d="m332.9 211.7l-14.6 15.9-0.1 11.2h-0.3l0.1-26-12.4-12.6 0.2-0.3 12.2 12.4v-13.9h0.4l-0.1 28.6 14.3-15.5z"/><path class="n" d="m313.2 232.6l-2.9-16.2 0.4-0.1 3.9 22.4-0.3 0.1-1-5.6-6.3-6 0.2-0.2z"/><path class="m" d="m308.9 251.9v-11.8h14.9v11.8c0 1.6-1.3 3-3 3h-8.9c-1.7 0-3-1.4-3-3z"/><path class="i" d="m318.2 198.4c-5.2 0-9.3-4.2-9.3-9.3 0-5.2 4.1-9.3 9.3-9.3 5.1 0 9.3 4.1 9.3 9.3 0 5.1-4.2 9.3-9.3 9.3z"/><path class="i" d="m309.8 217.3c-3.6 0-6.6-3-6.6-6.7 0-3.7 3-6.7 6.6-6.7 3.7 0 6.7 3 6.7 6.7 0 3.7-3 6.7-6.7 6.7z"/><path class="r" d="m309.8 217.3c-3.6 0-6.6-3-6.6-6.7 0-3.7 3-6.7 6.6-6.7 3.7 0 6.7 3 6.7 6.7 0 3.7-3 6.7-6.7 6.7z"/><path class="r" d="m318.2 198.4c-5.2 0-9.3-4.2-9.3-9.3 0-5.2 4.1-9.3 9.3-9.3 5.1 0 9.3 4.1 9.3 9.3 0 5.1-4.2 9.3-9.3 9.3z"/><path class="i" d="m303.9 202.2c-2.2 0-4-1.8-4-4 0-2.2 1.8-3.9 4-3.9 2.2 0 4 1.7 4 3.9 0 2.2-1.8 4-4 4z"/><path class="i" d="m303.8 228.7c-2.6 0-4.7-2.1-4.7-4.7 0-2.6 2.1-4.7 4.7-4.7 2.6 0 4.7 2.1 4.7 4.7 0 2.6-2.1 4.7-4.7 4.7z"/><path class="i" d="m329.1 221.7c-3.4 0-6.1-2.7-6.1-6.1 0-3.3 2.7-6 6.1-6 3.3 0 6 2.7 6 6 0 3.4-2.7 6.1-6 6.1z"/><path class="m" d="m324.9 239.3c0 0.4-0.3 0.7-0.8 0.7h-15.5c-0.5 0-0.8-0.3-0.8-0.7 0-0.5 0.3-0.8 0.8-0.8h15.5c0.5 0 0.8 0.3 0.8 0.8z"/><path class="i" d="m308.9 189.1c0-5.2 4.2-9.3 9.3-9.3v18.6c-5.2 0-9.3-4.1-9.3-9.3z"/><path class="i" d="m310.8 217.2c-3.6 0.5-6.9-1.9-7.6-5.5-0.6-3.5 1.8-6.9 5.3-7.6z"/><path class="s" d="m301.1 201c-1.6-1.5-1.6-4 0-5.6 0 0 0 0 0 0l5.6 5.7c-1.6 1.5-4.1 1.5-5.6-0.1z"/><path class="s" d="m307.1 227.3c-1.8 1.9-4.8 1.9-6.6 0.1-1.9-1.8-1.9-4.8-0.1-6.7l6.8 6.5q0 0.1-0.1 0.1z"/><path class="k" d="m323.8 240.1v0.2h-13.6l2.2 11c0.4 2.1 2.2 3.6 4.3 3.6q0 0-0.1 0h-4.7c-1.7 0-3.1-1.4-3.1-3v-11.6-0.2h-0.3c-0.4 0-0.8-0.4-0.8-0.8 0-0.4 0.4-0.8 0.8-0.8h1.7c-0.5 0-0.8 0.4-0.8 0.8 0 0.4 0.3 0.8 0.8 0.8h13.6z"/><path class="s" d="m333.5 219.7c-2.2 2.5-6.1 2.6-8.5 0.4l8.1-9c0 0.1 0 0.1 0 0.1 2.5 2.3 2.6 6.1 0.4 8.5z"/><path class="j" d="m332.1 53.6h-78.6v-1.4h78.3z"/><path class="j" d="m332.9 56.1h-79.4v-1.4h79z"/><path class="j" d="m333.6 58.7h-80.1v-1.5h79.6z"/><path class="j" d="m334.3 61.2h-80.8v-1.4h80.4z"/><path class="j" d="m335 63.7h-81.5v-1.4h81.1z"/><path class="j" d="m335.6 66.3h-82.1v-1.5h81.7z"/><path class="j" d="m255.9 92v5.6c0 0.3-0.3 0.6-0.6 0.6h-0.4c-0.3 0-0.6-0.3-0.6-0.6v-5.6c0-0.3 0.3-0.5 0.6-0.5v-40.4h0.4v40.4c0.3 0 0.6 0.2 0.6 0.5z"/><path class="f" d="m182.8 125.8l5.2 28.2-2.4 1.5-2.6-2.5-3-29.3c0-0.4 2.2-0.2 2.8 2.1z"/><path class="f" d="m254.3 53.6h-0.8v-1.4h0.8z"/><path class="f" d="m254.3 56.1h-0.8v-1.4h0.8z"/><path class="f" d="m254.3 58.7h-0.8v-1.5h0.8z"/><path class="f" d="m254.3 61.2h-0.8v-1.4h0.8z"/><path class="f" d="m254.3 63.7h-0.8v-1.4h0.8z"/><path class="f" d="m254.3 66.3h-0.8v-1.5h0.8z"/><path class="f" d="m306 54.2h-3.9v-0.6h3.9z"/><path class="f" d="m306 56.8h-3.9v-0.7h3.9z"/><path class="f" d="m306 59.3h-3.9v-0.6h3.9z"/><path class="f" d="m306 61.8h-3.9v-0.6h3.9z"/><path class="f" d="m306 64.4h-3.9v-0.7h3.9z"/><path class="f" d="m306 66.9h-3.9v-0.6h3.9z"/><path class="i" d="m37 52.7h26.5l14.7 42.1h-56.3z"/><path class="i" d="m37 52.7h8.3l-5.7 42.1h-17.7z"/><path class="i" d="m36.9 50.8h26.6v1.9h-26.6z"/><path class="i" d="m21.9 94.8h56.3v1.9h-56.3z"/><path class="t" d="m37 52.7h26.5l14.7 42.1h-56.3z"/><path class="t" d="m43.5 52.7h20l14.7 42.1h-41z"/><path class="p" d="m147.8 106.7c0 0-0.3 1.3 0.7 1.9 1.1 0.7 5.5 3.6 11.6 1.7 0 0 1.9-0.5 3.8-1.9 0.4-0.3 0.7-0.7 0.7-1.2q0-0.1 0-0.2v-0.4c0 0 0 0 1.8 0.4 0 0.5-0.2 1.5-1.1 2.4-0.5 0.5-7.9 6.2-17.3 0.9 0 0-2.1-0.8-1.9-3.2 1.7-0.4 1.7-0.4 1.7-0.4z"/><path class="u" d="m134.6 22.4q0.5 0 1 0c7 0 12.6 5.6 12.6 12.6 0 2.4-0.6 4.6-1.8 6.5z"/><path class="u" d="m145.3 43q-0.6 0.8-1.4 1.5l-13-21.2q0.8-0.3 1.8-0.6z"/><path class="g" d="m171.5 152.1l4.4 0.6 9.5-0.8c1 0.1 1.4 0.3 2.2 0.9l5.8 5.2c0.4 0.4 0.4 0.9 0.1 1.3-0.3 0.4-0.9 0.5-1.3 0.2l-5.5-4.1 3.6 4.3c0.4 0.4 0.2 1.2-0.4 1.4-0.3 0.1-0.7 0-0.9-0.2l-4.8-4.7 3.6 3.6c0.5 0.4 0.3 1.1-0.2 1.4-0.3 0.1-0.6 0-0.9-0.1l-5.1-3.8 3.5 2.6c0.4 0.3 0.4 0.9 0 1.2-0.2 0.1-0.5 0.2-0.7 0.1l-4.7-2c-0.4-0.2-1-0.2-1.4 0.1l-1.8 0.8c-1.4 0.8-3 1.1-4.6 1.1h-2.9c-4.2 0 2.5-9.1 2.5-9.1z"/><path class="h" d="m143.9 148.6l-1.5-0.1c-0.5-0.1-0.7-0.6-0.6-1l1.7-3.3z"/><path class="h" d="m185.1 160q-0.1 0-0.1 0l-3.2-2.3c-0.1-0.1-0.1-0.2 0-0.3 0 0 0.1 0 0.2 0l3.2 2.4c0 0 0.1 0.1 0 0.2 0 0-0.1 0-0.1 0z"/><path class="h" d="m187.8 159.9c0 0-0.1 0-0.1 0l-3.4-3.4q-0.1-0.1 0-0.2 0.1-0.1 0.2 0l3.4 3.4q0.1 0.1 0 0.2c0 0-0.1 0-0.1 0z"/><path class="h" d="m180.7 158.7c1.1 0.5 2.9 1.4 3.5 1.7 0.9 0.5 1.1-0.1 1.1-0.1 0.1 0.3 0 0.6-0.2 0.8-0.3 0.1-0.5 0.2-0.8 0.1l-4.6-2c-0.5-0.2-1-0.2-1.4 0.1l0.9-0.6c0.5-0.3 1-0.3 1.5 0z"/><path class="i" d="m167.6 161.2h-30.5c-4.1 0-7.6-3-8.3-7.1l-3.4-21.7 16.8-0.8 1.7 17 26.9 3.9z"/><path class="i" d="m171.4 161.3h-34.3c-4.1 0-7.6-3-8.3-7.1l-3.4-21.8 16.8-0.8 1.7 17 30.5 3.9z"/><path class="v" d="m183.8 156.4l-1.2-0.9z"/><path class="p" d="m134.8 135.6c0-0.3 0.3-0.6 0.7-0.6 0.3 0 0.6 0.3 0.6 0.6 0 0.4-0.3 0.7-0.6 0.7-0.4 0-0.7-0.3-0.7-0.7z"/><path class="p" d="m171.4 152.1l3 0.4-3 8.7h-3.7z"/><path class="w" d="m171.7 151.9q-0.1 0.2-0.2 0.2l-27.6-4-0.1-0.5 27.7 4c0.1 0.1 0.2 0.2 0.2 0.3z"/><path class="j" d="m141.4 140.7c-0.3 0-0.5-0.2-0.5-0.5l-0.2-1.5c0-0.2 0.2-0.5 0.5-0.5 0.2 0 0.5 0.2 0.5 0.5l0.1 1.5c0.1 0.2-0.1 0.5-0.4 0.5q0 0 0 0z"/><path class="j" d="m129.7 145.8c-0.1 0-0.2-0.1-0.3-0.1-0.2-0.2-0.2-0.5-0.1-0.7l0.9-1.1c0.2-0.2 0.5-0.2 0.7-0.1 0.2 0.2 0.2 0.5 0.1 0.7l-0.9 1.1q-0.2 0.2-0.4 0.2z"/><path class="j" d="m143.6 156.1c0 0-0.1 0-0.1 0l-1.5-0.5c-0.3 0-0.4-0.3-0.3-0.6 0-0.2 0.3-0.3 0.5-0.3l1.6 0.5c0.2 0.1 0.4 0.3 0.3 0.6-0.1 0.2-0.3 0.3-0.5 0.3z"/><path class="j" d="m157 156.6c-0.1 0-0.3 0-0.3-0.1-0.2-0.1-0.2-0.5-0.1-0.6l1-1.2c0.1-0.2 0.5-0.3 0.6-0.1 0.2 0.2 0.3 0.5 0.1 0.7l-1 1.1q-0.2 0.2-0.3 0.2z"/><path class="p" d="m150.1 152.5c0-0.3 0.3-0.6 0.6-0.6 0.4 0 0.7 0.3 0.7 0.6 0 0.3-0.3 0.6-0.7 0.6-0.3 0-0.6-0.3-0.6-0.6z"/><path class="p" d="m161.5 159.4c0-0.4 0.2-0.6 0.6-0.6 0.3 0 0.6 0.2 0.6 0.6 0 0.3-0.3 0.6-0.6 0.6-0.4 0-0.6-0.3-0.6-0.6z"/><path class="p" d="m136.8 147.3c0-0.4 0.3-0.6 0.7-0.6 0.3 0 0.6 0.2 0.6 0.6 0 0.3-0.3 0.6-0.6 0.6-0.4 0-0.7-0.3-0.7-0.6z"/><path class="h" d="m171.9 159.7l-0.5 1.5h-34.2c-4.2 0-7.7-3-8.3-7.1l-4.9-31.4c-0.9-5.7 2.7-11 8.2-12.3l3-0.7c-4.5 2-7.2 6.7-6.4 11.6l4.5 29c0.7 4.1 4.2 7.1 8.3 7.1z"/><path class="h" d="m178.6 159.1l-2.1 1c-1.4 0.8-3 1.1-4.7 1.1h-0.4l3-8.7-0.7 5.8c0 0.7 0.5 1.4 1.3 1.4 1.8 0 3.1-0.5 3.6-0.6z"/><path class="n" d="m167.2 161h30.9c0.2 0 0.4 0.2 0.4 0.4v0.8c0 0.3-0.2 0.5-0.4 0.5h-30.9c-0.2 0-0.4-0.2-0.4-0.5v-0.8c0-0.2 0.2-0.4 0.4-0.4z"/><path class="p" d="m167.2 161h30.9c0.2 0 0.4 0.2 0.4 0.4v0.8c0 0.3-0.2 0.5-0.4 0.5h-30.9c-0.2 0-0.4-0.2-0.4-0.5v-0.8c0-0.2 0.2-0.4 0.4-0.4z"/><path class="n" d="m188 161h53.7c0.3 0 0.5 0.2 0.5 0.4v0.8c0 0.3-0.2 0.5-0.5 0.5h-53.7c-0.2 0-0.4-0.2-0.4-0.5v-0.8c0-0.2 0.2-0.4 0.4-0.4z"/><path class="l" d="m241.1 161.3h-54.7q-0.2 0-0.2-0.2 0-0.1 0.2-0.1h54.7q0.1 0 0.1 0.1c0 0.1-0.1 0.2-0.1 0.2z"/><path class="n" d="m186.6 159.4l6.8-35.6c0.1-0.7 0.7-1.1 1.3-1.1h8.1c0.8 0 1.4 0.7 1.3 1.5l-6.8 35.7c-0.2 0.6-0.7 1.1-1.3 1.1h-8.1c-0.8 0-1.4-0.7-1.3-1.6z"/><path class="p" d="m186.6 159.4l6.8-35.6c0.1-0.7 0.7-1.1 1.3-1.1h8.1c0.8 0 1.4 0.7 1.3 1.5l-6.8 35.7c-0.2 0.6-0.7 1.1-1.3 1.1h-8.1c-0.8 0-1.4-0.7-1.3-1.6z"/><path class="n" d="m187.8 159.4l6.8-35.6c0.1-0.7 0.6-1.1 1.3-1.1h51.9c0.8 0 1.4 0.7 1.3 1.5l-6.8 35.7c-0.1 0.6-0.7 1.1-1.3 1.1h-51.9c-0.9 0-1.5-0.7-1.3-1.6z"/><path class="p" d="m218.7 140.8c-0.3 0.8 0.1 1.4 0.8 1.4q0.1 0 0.1 0c-0.8 0.9-2.1 1.6-3.2 1.5-1.6 0-2.3-1.2-1.6-2.8 0.7-1.5 2.5-2.7 4-2.7 1 0.1 1.6 0.6 1.8 1.4-0.7 0-1.5 0.5-1.9 1.2z"/><path class="g" d="m164.9 96.6q-0.1 1.5-0.5 2.7l0.2 7.6c0.1 0.5-0.1 0.9-0.4 1.3-3.7 2.8-8.6 3.5-12.9 1.8-0.9-0.3-1.7-0.7-2.8-1.4q-0.2-0.2-0.4-0.3v-0.1c-0.3-0.3-0.4-0.7-0.3-1.2v-0.3l2.1-14.7 0.4-3c1.4-11.4 15.8-0.9 15.8-0.9 0 0-0.7 4-1.2 8.5z"/><path class="n" d="m167.7 88.9c-2.8 0-5.1-2.3-5.1-5.1 0-2.8 2.3-5.1 5.1-5.1 2.8 0 5.1 2.3 5.1 5.1 0 2.8-2.3 5.1-5.1 5.1z"/><path class="g" d="m168.3 80.1c0 0 3.7 22.7-7.9 23.4-10 0.6-9.9-15-9.9-15l1.2-10z"/><path class="n" d="m167.6 81.5h-10.2c-1.3 0-2.3 1-2.3 2.3 0 1.2-1 2.3-2.3 2.3-0.4 0-0.7 0.3-0.7 0.6v2.3c0 0.2-0.2 0.5-0.5 0.5-0.2 0-0.5-0.2-0.5-0.5l-0.3-2.1-0.4-0.8-2.5 1.4c0 0-3.4-6.3-1.2-11.6 1.3-3 4.4-3.9 5.9-4 0.5 0 0.9-0.2 1.2-0.6 0.6-1 2.2-2.6 5.4-2.2 2.4 0.2 3.7 1.7 4.3 2.8 0.4 0.7 1.2 1 1.9 0.7 1.1-0.3 2.6-0.5 4.2 0.7 3.3 2.2 1.5 7.9-2 8.2z"/><path class="h" d="m149.8 92.8c0 0 0.9 0.1 1.5-0.2l-1.8 2.3z"/><path class="g" d="m151.3 90.1c0.2 1.7 0.6 3-1.6 2.7-4.2-0.7-4.3-6.4-1.7-7.3 2.2-0.8 2.8 1.4 2.8 1.4 0 0 0 0 0.5 3.2z"/><path class="s" d="m147.7 87c0.5-0.3 0.9-0.4 1.3-0.3q0.6 0.2 0.9 0.9c0.2 0.4 0.3 1 0.3 1.5v0.5c0 0.2-0.1 0.3-0.3 0.3-0.1 0-0.2-0.1-0.2-0.3v-0.5c0-0.1-0.1-0.9-0.3-1.3-0.1-0.3-0.3-0.5-0.6-0.6q-0.3-0.1-0.8 0.2c-0.1 0.1-0.3 0-0.4-0.1 0-0.1 0-0.3 0.1-0.3z"/><path class="g" d="m167.6 81.9l-1.2 0.1c-0.1 0-0.2-0.1-0.2-0.3 0-0.1 0.1-0.2 0.2-0.2h1.2q0.2-0.1 0.4-0.1c0.3-0.1 0.9-0.3 1.4-0.6q0.2-0.1 0.3 0.1 0.1 0.2-0.1 0.3c-0.5 0.4-1.2 0.6-1.5 0.6q-0.2 0.1-0.5 0.1z"/><path class="h" d="m158.5 103.9c-2.6-0.6-4.2-2-5.1-3.2-0.1-0.1 0-0.3 0.1-0.4 0.1 0 0.2 0 0.3 0.1 0.7 1 1.9 2.2 3.8 2.8 0 0 0 0 0 0 3 1 5.9-0.3 6.9-1.2l0.1 3.6c0 0-3.1 0.7-6.1-1.7z"/><path class="h" d="m161.6 99q-1.3 0-1.4 0c-0.1 0-0.3-0.1-0.3-0.3 0-0.1 0.2-0.3 0.3-0.3q0.1 0 1.4 0c0.2 0 0.3 0.1 0.3 0.3 0 0.2-0.1 0.3-0.3 0.3z"/><path class="h" d="m162.2 97.7c-2.5 0.2-3.6-1.2-3.9-1.9-0.1-0.2 0-0.3 0.1-0.4 0.2-0.1 0.3 0 0.4 0.1 0.3 0.7 1.5 2.2 4.6 1.5 0.1-0.1 0.3 0 0.3 0.2 0 0.1-0.1 0.3-0.2 0.3q-0.7 0.2-1.3 0.2z"/><path class="n" d="m158.4 90.6c0-0.5 0.4-0.9 0.9-0.9 0.5 0 0.9 0.4 0.9 0.9 0 0.5-0.4 0.9-0.9 0.9-0.5 0-0.9-0.4-0.9-0.9z"/><path class="j" d="m159.6 90.8c0-0.1 0-0.2 0.1-0.2 0.1 0 0.2 0.1 0.2 0.2 0 0.1-0.1 0.2-0.2 0.2-0.1 0-0.1-0.1-0.1-0.2z"/><path class="n" d="m165.6 91.1c0-0.5 0.5-0.9 1-0.9 0.5 0 0.9 0.4 0.9 0.9 0 0.5-0.4 1-0.9 1-0.5 0-1-0.5-1-1z"/><path class="j" d="m166.8 91.3c0-0.1 0.1-0.2 0.2-0.2 0.1 0 0.2 0.1 0.2 0.2 0 0.1-0.1 0.2-0.2 0.2-0.1 0-0.2-0.1-0.2-0.2z"/><path class="h" d="m163.1 95.6h-1.3c-0.2 0-0.3-0.2-0.3-0.3 0-0.2 0.1-0.3 0.3-0.3h1.3c0.3 0 0.5-0.3 0.5-0.6 0-0.3-0.2-0.5-0.5-0.5-0.2 0-0.3-0.2-0.3-0.3 0-0.2 0.1-0.3 0.3-0.3 0.5 0 1 0.5 1 1.1 0 0.7-0.4 1.2-1 1.2z"/><path fill-rule="evenodd" class="n" d="m170.6 90.3v1.1c-0.2 2-1.9 3.4-3.9 3.3-2-0.1-3.5-1.9-3.3-3.8v-1.1q0.1-0.4 0.4-0.8h-1.4c0.1 0.2 0.2 0.5 0.2 0.8l-0.1 1c-0.1 2-1.9 3.5-3.8 3.3-2-0.1-3.5-1.8-3.4-3.8l0.1-1c0-0.8 0.7-1.3 1.4-1.3l4.5 0.4 3.5 0.2h0.6l4 0.3c0.7 0.1 1.2 0.7 1.2 1.4zm-9.3-1.4h-0.1l-4.5-0.3c-0.4-0.1-0.8 0.3-0.8 0.7l-0.1 1.1c-0.1 1.7 1.2 3.1 2.9 3.2 1.7 0.2 3.1-1.1 3.3-2.8v-1c0.1-0.5-0.3-0.9-0.7-0.9zm8.8 1.4c0-0.5-0.4-0.8-0.8-0.9l-4-0.3h-0.5c-0.5 0-0.8 0.3-0.9 0.8v1c-0.2 1.7 1.1 3.2 2.8 3.3 1.7 0.1 3.2-1.2 3.3-2.9z"/><path class="d" d="m120 155.3c0-2 1.6-3.6 3.5-3.6h16.3c2 0 3.6 1.6 3.6 3.6v99.6h-23.4z"/></svg>