<svg xmlns="http://www.w3.org/2000/svg" xmlns:xlink="http://www.w3.org/1999/xlink" width="1000" height="1000" version="1.1" viewBox="0 0 1000 1000" xml:space="preserve"><desc>Created with Fabric.js 3.5.0</desc><rect width="100%" height="100%" x="0" y="0" fill="none"/><g id="952464" clip-path="url(#CLIPPATH_4)" transform="matrix(5.0937 0 0 3.3295 499.9977 633.0258)"><clipPath id="CLIPPATH_4"><rect id="clip0_302_78" width="159" height="159" x="-79.5" y="-79.5" rx="0" ry="0" transform="matrix(1 0 0 1 -0.0001 -0.0005)"/></clipPath><path style="stroke:#1e1d21;stroke-width:1;stroke-dasharray:none;stroke-linecap:butt;stroke-dashoffset:0;stroke-linejoin:miter;stroke-miterlimit:4;is-custom-font:none;font-file-url:none;fill:#1e1d21;fill-rule:nonzero;opacity:1" stroke-linecap="round" d="M 158.004 77.1235 L 81.8028 0.990297 C 80.4947 -0.256857 78.4373 -0.256857 77.1292 0.990297 L 0.996304 77.0555 C 0.980111 77.0714 0.964236 77.0873 0.94836 77.1035 C -0.334353 78.4129 -0.313081 80.5141 0.996304 81.7968 L 77.1971 157.93 C 77.8016 158.558 78.6287 158.923 79.5 158.946 C 80.3836 158.951 81.2345 158.611 81.8708 157.998 L 158.004 81.8644 C 158.02 81.8486 158.036 81.8327 158.052 81.8165 C 159.335 80.5078 159.313 78.4062 158.004 77.1235 Z" transform="translate(-79.5001, -79.5005)" vector-effect="non-scaling-stroke"/></g><g id="847486" clip-path="url(#CLIPPATH_5)" transform="matrix(3.6058 0 0 2.3569 499.3769 632.3966)"><clipPath id="CLIPPATH_5"><rect id="clip0_302_78" width="159" height="159" x="-79.5" y="-79.5" rx="0" ry="0" transform="matrix(1 0 0 1 -0.0001 -0.0005)"/></clipPath><path style="stroke:none;stroke-width:0;stroke-dasharray:none;stroke-linecap:butt;stroke-dashoffset:0;stroke-linejoin:miter;stroke-miterlimit:4;is-custom-font:none;font-file-url:none;fill:#ede9fe;fill-rule:nonzero;opacity:1" stroke-linecap="round" d="M 158.004 77.1235 L 81.8028 0.990297 C 80.4947 -0.256857 78.4373 -0.256857 77.1292 0.990297 L 0.996304 77.0555 C 0.980111 77.0714 0.964236 77.0873 0.94836 77.1035 C -0.334353 78.4129 -0.313081 80.5141 0.996304 81.7968 L 77.1971 157.93 C 77.8016 158.558 78.6287 158.923 79.5 158.946 C 80.3836 158.951 81.2345 158.611 81.8708 157.998 L 158.004 81.8644 C 158.02 81.8486 158.036 81.8327 158.052 81.8165 C 159.335 80.5078 159.313 78.4062 158.004 77.1235 Z" transform="translate(-79.5001, -79.5005)" vector-effect="non-scaling-stroke"/></g><g id="384175" clip-path="url(#CLIPPATH_6)" transform="matrix(5.0937 0 0 3.3295 499.9977 366.9675)"><clipPath id="CLIPPATH_6"><rect id="clip0_302_78" width="159" height="159" x="-79.5" y="-79.5" rx="0" ry="0" transform="matrix(1 0 0 1 -0.0001 -0.0005)"/></clipPath><path style="stroke:#1e1d21;stroke-width:1;stroke-dasharray:none;stroke-linecap:butt;stroke-dashoffset:0;stroke-linejoin:miter;stroke-miterlimit:4;is-custom-font:none;font-file-url:none;fill:#1e1d21;fill-rule:nonzero;opacity:1" stroke-linecap="round" d="M 158.004 77.1235 L 81.8028 0.990297 C 80.4947 -0.256857 78.4373 -0.256857 77.1292 0.990297 L 0.996304 77.0555 C 0.980111 77.0714 0.964236 77.0873 0.94836 77.1035 C -0.334353 78.4129 -0.313081 80.5141 0.996304 81.7968 L 77.1971 157.93 C 77.8016 158.558 78.6287 158.923 79.5 158.946 C 80.3836 158.951 81.2345 158.611 81.8708 157.998 L 158.004 81.8644 C 158.02 81.8486 158.036 81.8327 158.052 81.8165 C 159.335 80.5078 159.313 78.4062 158.004 77.1235 Z" transform="translate(-79.5001, -79.5005)" vector-effect="non-scaling-stroke"/></g><g id="940247" clip-path="url(#CLIPPATH_7)" transform="matrix(3.6058 0 0 2.3569 499.3769 366.3383)"><clipPath id="CLIPPATH_7"><rect id="clip0_302_78" width="159" height="159" x="-79.5" y="-79.5" rx="0" ry="0" transform="matrix(1 0 0 1 -0.0001 -0.0005)"/></clipPath><path style="stroke:none;stroke-width:0;stroke-dasharray:none;stroke-linecap:butt;stroke-dashoffset:0;stroke-linejoin:miter;stroke-miterlimit:4;is-custom-font:none;font-file-url:none;fill:#7c3aed;fill-rule:nonzero;opacity:1" stroke-linecap="round" d="M 158.004 77.1235 L 81.8028 0.990297 C 80.4947 -0.256857 78.4373 -0.256857 77.1292 0.990297 L 0.996304 77.0555 C 0.980111 77.0714 0.964236 77.0873 0.94836 77.1035 C -0.334353 78.4129 -0.313081 80.5141 0.996304 81.7968 L 77.1971 157.93 C 77.8016 158.558 78.6287 158.923 79.5 158.946 C 80.3836 158.951 81.2345 158.611 81.8708 157.998 L 158.004 81.8644 C 158.02 81.8486 158.036 81.8327 158.052 81.8165 C 159.335 80.5078 159.313 78.4062 158.004 77.1235 Z" transform="translate(-79.5001, -79.5005)" vector-effect="non-scaling-stroke"/></g></svg>