<svg xmlns="http://www.w3.org/2000/svg" xmlns:xlink="http://www.w3.org/1999/xlink" width="1000" height="1000" version="1.1" viewBox="0 0 1000 1000" xml:space="preserve"><desc>Created with Fabric.js 3.5.0</desc><rect width="100%" height="100%" x="0" y="0" fill="none"/><g id="642945"><g><g><path style="stroke:none;stroke-width:1;stroke-dasharray:none;stroke-linecap:butt;stroke-dashoffset:0;stroke-linejoin:miter;stroke-miterlimit:4;is-custom-font:none;font-file-url:none;fill:#8b5cf6;fill-rule:nonzero;opacity:1" stroke-linecap="round" d="M 20 8 h -12 c -2.21 0 -3.98 1.79 -3.98 4 l -0.02 24 c 0 2.21 1.79 4 4 4 h 32 c 2.21 0 4 -1.79 4 -4 v -20 c 0 -2.21 -1.79 -4 -4 -4 h -16 l -4 -4 z" transform="matrix(18.9394 0 0 18.9394 500.0001 500.0001) matrix(1 0 0 1 0 0) translate(-24, -24)"/></g><g><path style="stroke:none;stroke-width:1;stroke-dasharray:none;stroke-linecap:butt;stroke-dashoffset:0;stroke-linejoin:miter;stroke-miterlimit:4;is-custom-font:none;font-file-url:none;fill:none;fill-rule:nonzero;opacity:1" stroke-linecap="round" d="M 0 0 h 48 v 48 h -48 z" transform="matrix(18.9394 0 0 18.9394 500.0001 500.0001) matrix(1 0 0 1 0 0) translate(-24, -24)"/></g></g></g></svg>