<svg xmlns="http://www.w3.org/2000/svg" xmlns:xlink="http://www.w3.org/1999/xlink" version="1.1" width="1000" height="1000" viewBox="0 0 1000 1000" xml:space="preserve">
<desc>Created with Fabric.js 3.5.0</desc>
<defs>
</defs>
<rect x="0" y="0" width="100%" height="100%" fill="none"/>
<g transform="matrix(45.4545 0 0 45.4545 499.9995 499.9996)" id="879176">
<path style="stroke: none; stroke-width: 1; stroke-dasharray: none; stroke-linecap: butt; stroke-dashoffset: 0; stroke-linejoin: miter; stroke-miterlimit: 4; is-custom-font: none; font-file-url: none; fill: rgb(139,92,246); fill-rule: nonzero; opacity: 1;" vector-effect="non-scaling-stroke" transform=" translate(-12, -12)" d="M 20 4 H 4 c -1.11 0 -2 0.9 -2 2 v 12 c 0 1.1 0.89 2 2 2 h 16 c 1.1 0 2 -0.9 2 -2 V 6 c 0 -1.1 -0.89 -2 -2 -2 z m 0 14 H 4 V 8 h 16 v 10 z m -2 -1 h -6 v -2 h 6 v 2 z M 7.5 17 l -1.41 -1.41 L 8.67 13 l -2.59 -2.59 L 7.5 9 l 4 4 l -4 4 z" stroke-linecap="round"/>
</g>
</svg>
