<svg xmlns="http://www.w3.org/2000/svg" xmlns:xlink="http://www.w3.org/1999/xlink" version="1.1" width="1000" height="1000" viewBox="0 0 1000 1000" xml:space="preserve">
<desc>Created with Fabric.js 3.5.0</desc>
<defs>
</defs>
<rect x="0" y="0" width="100%" height="100%" fill="none"/>
<g transform="matrix(9.0909 0 0 9.0909 499.9995 499.9995)" id="618920">
<g style="" vector-effect="non-scaling-stroke">
		<g transform="matrix(1 0 0 1 -0.0304 -11.9518)">
<path style="stroke: none; stroke-width: 1; stroke-dasharray: none; stroke-linecap: butt; stroke-dashoffset: 0; stroke-linejoin: miter; stroke-miterlimit: 4; is-custom-font: none; font-file-url: none; fill: rgb(124,58,237); fill-rule: nonzero; opacity: 1;" transform=" translate(-49.9696, -38.0482)" d="M 96.4614 10.7962 L 75.8569 0.875542 C 73.4719 -0.272773 70.6217 0.211611 68.75 2.08333 L 1.29858 63.5832 C -0.515693 65.2373 -0.513607 68.0937 1.30308 69.7452 L 6.81272 74.754 C 8.29793 76.1042 10.5347 76.2036 12.1338 74.9905 L 93.3609 13.3699 C 96.086 11.3026 100 13.2462 100 16.6667 V 16.4275 C 100 14.0265 98.6246 11.8378 96.4614 10.7962 Z" stroke-linecap="round"/>
</g>
		<g transform="matrix(1 0 0 1 -0.0304 11.9519)">
<path style="stroke: none; stroke-width: 1; stroke-dasharray: none; stroke-linecap: butt; stroke-dashoffset: 0; stroke-linejoin: miter; stroke-miterlimit: 4; is-custom-font: none; font-file-url: none; fill: rgb(139,92,246); fill-rule: nonzero; opacity: 1;" transform=" translate(-49.9696, -61.9519)" d="M 96.4614 89.2038 L 75.8569 99.1245 C 73.4719 100.273 70.6217 99.7884 68.75 97.9167 L 1.29858 36.4169 C -0.515693 34.7627 -0.513607 31.9063 1.30308 30.2548 L 6.81272 25.246 C 8.29793 23.8958 10.5347 23.7964 12.1338 25.0095 L 93.3609 86.6301 C 96.086 88.6974 100 86.7538 100 83.3334 V 83.5726 C 100 85.9735 98.6246 88.1622 96.4614 89.2038 Z" stroke-linecap="round"/>
</g>
		<g transform="matrix(1 0 0 1 34.375 0.0001)">
<path style="stroke: none; stroke-width: 1; stroke-dasharray: none; stroke-linecap: butt; stroke-dashoffset: 0; stroke-linejoin: miter; stroke-miterlimit: 4; is-custom-font: none; font-file-url: none; fill: rgb(167,139,250); fill-rule: nonzero; opacity: 1;" transform=" translate(-84.375, -50.0001)" d="M 75.8578 99.1263 C 73.4721 100.274 70.6219 99.7885 68.75 97.9166 C 71.0564 100.223 75 98.5895 75 95.3278 V 4.67213 C 75 1.41039 71.0564 -0.223106 68.75 2.08329 C 70.6219 0.211402 73.4721 -0.273666 75.8578 0.873633 L 96.4587 10.7807 C 98.6234 11.8217 100 14.0112 100 16.4132 V 83.5871 C 100 85.9891 98.6234 88.1786 96.4586 89.2196 L 75.8578 99.1263 Z" stroke-linecap="round"/>
</g>
		<g transform="matrix(1 0 0 1 -0.0608 0)">
<linearGradient id="SVGID_2" gradientUnits="userSpaceOnUse" gradientTransform="matrix(1 0 0 1 0 0)" x1="49.9392" y1="0.257812" x2="49.9392" y2="99.7423">
<stop offset="0%" style="stop-color:rgb(255,255,255);stop-opacity: 1"/>
<stop offset="100%" style="stop-color:rgb(255,255,255);stop-opacity: 0"/>
</linearGradient>
<path style="stroke: none; stroke-width: 1; stroke-dasharray: none; stroke-linecap: butt; stroke-dashoffset: 0; stroke-linejoin: miter; stroke-miterlimit: 4; is-custom-font: none; font-file-url: none; fill: url(#SVGID_2); fill-rule: evenodd; opacity: 0.25;" transform=" translate(-49.9392, -50)" d="M 70.8511 99.3171 C 72.4261 99.9306 74.2221 99.8913 75.8117 99.1264 L 96.4 89.2197 C 98.5634 88.1787 99.9392 85.9892 99.9392 83.5871 V 16.4133 C 99.9392 14.0112 98.5635 11.8217 96.4001 10.7807 L 75.8117 0.873695 C 73.7255 -0.13019 71.2838 0.115699 69.4527 1.44688 C 69.1912 1.63705 68.942 1.84937 68.7082 2.08335 L 29.2943 38.0414 L 12.1264 25.0096 C 10.5283 23.7964 8.29285 23.8959 6.80855 25.246 L 1.30225 30.2548 C -0.513334 31.9064 -0.515415 34.7627 1.29775 36.4169 L 16.1863 50 L 1.29775 63.5832 C -0.515415 65.2374 -0.513334 68.0937 1.30225 69.7452 L 6.80855 74.754 C 8.29285 76.1042 10.5283 76.2036 12.1264 74.9905 L 29.2943 61.9586 L 68.7082 97.9167 C 69.3317 98.5405 70.0638 99.0104 70.8511 99.3171 Z M 74.9544 27.2989 L 45.0483 50 L 74.9544 72.7012 V 27.2989 Z" stroke-linecap="round"/>
</g>
</g>
</g>
</svg>
